<?xml version="1.0" encoding="iso-8859-1"?><!-- Generator: Adobe Illustrator 16.0.0, SVG Export Plug-In . SVG Version: 6.00 Build 0) --><!DOCTYPE svg PUBLIC "-//W3C//DTD SVG 1.1//EN" "http://www.w3.org/Graphics/SVG/1.1/DTD/svg11.dtd"><svg version="1.1" id="Layer_1" xmlns="http://www.w3.org/2000/svg" xmlns:xlink="http://www.w3.org/1999/xlink" x="0px" y="0px" width="192.756px" height="192.756px" viewBox="0 0 192.756 192.756" style="enable-background:new 0 0 192.756 192.756;" xml:space="preserve"><g><polygon style="fill-rule:evenodd;clip-rule:evenodd;fill:#FFFFFF;" points="0,0 192.756,0 192.756,192.756 0,192.756 0,0	"/><path style="fill-rule:evenodd;clip-rule:evenodd;fill:#CC2229;" d="M8.38,82.428h17.661c7.459,0,10.369,2.072,10.596,6.025	c0.199,3.454-1.836,5.718-5.924,6.601h-0.048l0.004,0.077c3.207,0.538,5.367,2.956,5.513,5.489c0.38,6.6-6.111,9.209-13.617,9.209	H2.834L8.38,82.428L8.38,82.428z M14.49,103.305h6.785c1.876,0,4.444-0.537,4.316-2.764c-0.117-2.033-2.012-2.34-4.225-2.34h-5.823	L14.49,103.305L14.49,103.305z M16.549,93.096h5.967c1.685,0,3.773-0.499,3.676-2.187c-0.095-1.65-1.508-1.958-3.385-1.958H17.37	L16.549,93.096L16.549,93.096z"/><path style="fill-rule:evenodd;clip-rule:evenodd;fill:#CC2229;" d="M42.543,89.911h9.528l-4.052,19.917h-9.528L42.543,89.911	L42.543,89.911z M52.477,87.762h-9.528l1.089-5.334h9.528L52.477,87.762L52.477,87.762z"/><path style="fill-rule:evenodd;clip-rule:evenodd;fill:#CC2229;" d="M56.217,95.937c1.188-5.296,6.266-6.524,12.377-6.524	c4.523,0,12.153,0.461,12.431,5.296c0.179,3.108-2.338,12.051-2.264,13.356c0.281,1.535,0.049,0.844,0.487,1.764h-9.335	c-0.276-0.613-0.458-1.266-0.448-1.918H69.37c-1.592,1.611-4.77,2.418-7.561,2.418c-4.283,0-8.17-1.496-8.389-5.297	c-0.303-5.258,4.524-6.676,11.67-7.1c2.686-0.152,6.986,0.154,6.845-2.302c-0.079-1.381-1.639-1.727-3.083-1.727	c-1.925,0-3.242,0.537-3.685,2.034H56.217L56.217,95.937z M66.026,105.838c3.224,0,4.415-1.881,4.823-4.836	c-1.505,0.615-3.276,0.768-5.002,0.883c-1.582,0.115-3.036,0.768-2.952,2.227C62.975,105.492,64.487,105.838,66.026,105.838	C66.026,105.838,64.487,105.838,66.026,105.838L66.026,105.838z"/><path style="fill-rule:evenodd;clip-rule:evenodd;fill:#CC2229;" d="M87.771,89.911h9.191l-0.576,2.533h0.097	c1.725-1.803,4.542-3.032,7.573-3.032c4.379,0,8.217,1.459,8.441,5.374c0.051,0.882-0.154,2.341-0.455,3.798l-2.385,11.244h-9.527	l1.928-9.133c0.223-1.152,0.627-2.494,0.58-3.301c-0.072-1.266-1.264-1.918-2.805-1.918c-3.032,0-3.943,1.727-4.401,3.799	l-2.184,10.553h-9.528L87.771,89.911L87.771,89.911z"/><path style="fill-rule:evenodd;clip-rule:evenodd;fill:#CC2229;" d="M133.389,97.473c-0.006-0.961-0.234-1.575-0.785-1.958	c-0.506-0.422-1.332-0.575-2.439-0.575c-4.139,0-4.996,4.336-4.887,6.217c0.107,1.881,0.738,3.645,3.48,3.645	c2.6,0,3.555-1.803,4.02-2.916h9.143c-1.309,5.68-5.721,8.443-12.939,8.443c-10.588,0-13.014-5.373-13.229-9.096	c-0.391-6.792,4.855-11.82,14.383-11.82c6.93,0,12.223,2.495,12.398,8.061H133.389L133.389,97.473z"/><path style="fill-rule:evenodd;clip-rule:evenodd;fill:#CC2229;" d="M148.924,82.428h9.527l-2.021,10.016h0.096	c1.619-1.957,4.59-3.032,7.236-3.032c4.379,0,8.217,1.459,8.441,5.374c0.051,0.882-0.154,2.341-0.455,3.798l-2.385,11.244h-9.527	l1.928-9.133c0.223-1.152,0.627-2.494,0.58-3.301c-0.072-1.266-1.266-1.918-2.805-1.918c-3.031,0-3.943,1.727-4.4,3.799	l-2.186,10.553h-9.527L148.924,82.428L148.924,82.428z"/><path style="fill-rule:evenodd;clip-rule:evenodd;fill:#CC2229;" d="M178.898,89.911h9.529l-4.053,19.917h-9.527L178.898,89.911	L178.898,89.911z M188.832,87.762h-9.527l1.088-5.334h9.529L188.832,87.762L188.832,87.762z"/></g></svg>