<?xml version="1.0" encoding="utf-8"?>
<!-- Generator: Adobe Illustrator 16.0.4, SVG Export Plug-In . SVG Version: 6.00 Build 0)  -->
<!DOCTYPE svg PUBLIC "-//W3C//DTD SVG 1.1//EN" "http://www.w3.org/Graphics/SVG/1.1/DTD/svg11.dtd">
<svg version="1.1" id="Layer_1" xmlns="http://www.w3.org/2000/svg" xmlns:xlink="http://www.w3.org/1999/xlink" x="0px" y="0px"
	 width="237px" height="240px" viewBox="0 0 237 240" enable-background="new 0 0 237 240" xml:space="preserve">
<g>
	<path fill="#020202" d="M35.251,111.869c1.873,0.278,3.595,0.512,5.199,0.69c0.955,0.106,1.586,0.889,1.646,1.848
		c0.166,2.64,0.41,5.245,0.824,7.809c0.15,0.938-0.391,1.85-1.281,2.174c-1.516,0.553-3.321,1.229-5.075,1.939
		c-0.892,0.359-1.407,1.314-1.194,2.252c0.088,0.395,0.178,0.787,0.271,1.182c0.227,0.937,1.107,1.562,2.068,1.488
		c1.859-0.145,3.738-0.338,5.322-0.52c0.955-0.107,1.832,0.492,2.105,1.414c0.748,2.525,1.615,5.002,2.598,7.42
		c0.358,0.877,0.059,1.884-0.738,2.398c-1.33,0.857-2.895,1.895-4.418,2.955c-0.789,0.551-1.069,1.6-0.651,2.463
		c0.181,0.375,0.362,0.748,0.55,1.119c0.43,0.857,1.428,1.271,2.344,0.986c1.75-0.549,3.504-1.142,4.981-1.66
		c0.903-0.317,1.891,0.07,2.362,0.906c1.291,2.287,2.689,4.507,4.189,6.646c0.1,0.141,0.168,0.289,0.229,0.441l14.24-2.512
		c2.907-1.854,5.772-3.539,8.853-5.053c6.442-3.164,13.315-2.734,18.856,0.164l83.293-14.688c-4.076-2.27-7.975-4.825-11.646-7.657
		c-11.031-8.5-11.031-25.108,0-33.609c4.582-3.532,9.504-6.643,14.698-9.293c3.354,8.033,5.214,16.848,5.214,26.099
		c0,8.363-1.522,16.369-4.294,23.762l22.062-3.892c0.088-0.375,0.176-0.752,0.258-1.132c0.209-0.959-0.307-1.929-1.225-2.274
		c-1.359-0.514-2.703-0.995-3.882-1.405c-0.904-0.313-1.433-1.231-1.28-2.183c0.412-2.564,0.701-5.168,0.864-7.809
		c0.062-0.949,0.769-1.727,1.709-1.846c1.262-0.158,2.711-0.354,4.187-0.576c0.953-0.146,1.656-0.965,1.672-1.93
		c0.006-0.328,0.008-0.658,0.008-0.988c0-0.191-0.002-0.381-0.002-0.572c-0.006-0.973-0.738-1.792-1.703-1.924
		c-1.455-0.2-2.885-0.372-4.133-0.512c-0.955-0.105-1.676-0.889-1.736-1.848c-0.166-2.64-0.457-5.245-0.871-7.809
		c-0.148-0.938,0.363-1.848,1.256-2.174c1.219-0.442,2.613-0.965,4.025-1.522c0.896-0.354,1.395-1.313,1.193-2.259
		c-0.104-0.486-0.211-0.973-0.322-1.455c-0.223-0.96-1.108-1.621-2.09-1.535c-1.492,0.13-2.953,0.284-4.229,0.428
		c-0.954,0.107-1.831-0.492-2.104-1.414c-0.748-2.527-1.615-5.002-2.601-7.419c-0.354-0.88-0.058-1.886,0.739-2.401
		c1.113-0.719,2.391-1.561,3.669-2.438c0.797-0.546,1.069-1.591,0.661-2.467c-0.205-0.442-0.412-0.881-0.625-1.319
		c-0.43-0.887-1.439-1.333-2.377-1.032c-1.463,0.47-2.896,0.959-4.133,1.394c-0.904,0.317-1.894-0.072-2.363-0.907
		c-1.29-2.288-2.688-4.506-4.188-6.648c-0.546-0.778-0.479-1.825,0.186-2.506c0.949-0.974,2.037-2.111,3.117-3.285
		c0.646-0.703,0.701-1.779,0.115-2.534c-0.306-0.39-0.609-0.777-0.918-1.162c-0.609-0.759-1.693-0.948-2.531-0.453
		c-1.355,0.802-2.684,1.62-3.819,2.337c-0.812,0.512-1.863,0.352-2.509-0.359c-1.76-1.939-3.615-3.793-5.557-5.554
		c-0.703-0.638-0.869-1.673-0.375-2.483c0.729-1.194,1.562-2.592,2.379-4.021c0.473-0.828,0.287-1.885-0.449-2.491
		c-0.371-0.305-0.744-0.605-1.119-0.904c-0.762-0.607-1.862-0.553-2.57,0.117c-1.18,1.115-2.327,2.243-3.308,3.225
		c-0.678,0.68-1.737,0.757-2.524,0.206c-2.144-1.499-4.358-2.897-6.647-4.188c-0.828-0.466-1.221-1.438-0.918-2.338
		c0.461-1.37,0.979-2.978,1.473-4.601c0.273-0.911-0.141-1.898-0.992-2.325c-0.414-0.208-0.83-0.413-1.248-0.615
		c-0.878-0.423-1.938-0.126-2.479,0.683c-0.937,1.393-1.834,2.797-2.594,4.011c-0.514,0.813-1.525,1.125-2.414,0.764
		c-2.42-0.981-4.897-1.847-7.424-2.592c-0.912-0.269-1.513-1.13-1.418-2.076c0.148-1.481,0.307-3.223,0.422-4.967
		c0.064-0.95-0.561-1.819-1.486-2.044c-0.438-0.105-0.873-0.208-1.311-0.309c-0.949-0.215-1.916,0.31-2.265,1.217
		c-0.622,1.615-1.208,3.244-1.694,4.64c-0.316,0.906-1.234,1.435-2.183,1.283c-2.563-0.412-5.17-0.702-7.81-0.866
		c-0.949-0.059-1.728-0.766-1.846-1.708c-0.189-1.521-0.436-3.312-0.718-5.088c-0.152-0.947-0.966-1.084-1.925-1.101
		c-0.398-0.006-0.802,0.547-1.203,0.547c-0.032,0-0.063,0-0.095,0c-0.967,0-1.785,0.168-1.924,1.125
		c-0.257,1.764-0.474,3.261-0.642,4.771c-0.104,0.955-0.89,1.536-1.849,1.597c-2.639,0.166-5.246,0.388-7.81,0.801
		c-0.938,0.152-1.85-0.398-2.174-1.291c-0.537-1.476-1.192-3.232-1.883-4.942c-0.356-0.881-1.3-1.399-2.229-1.2
		c-0.41,0.088-0.82,0.174-1.229,0.27c-0.946,0.217-1.589,1.103-1.511,2.07c0.146,1.815,0.332,3.642,0.509,5.188
		c0.108,0.954-0.492,1.83-1.414,2.103c-2.525,0.748-5.002,1.614-7.418,2.598c-0.88,0.357-1.884,0.058-2.4-0.74
		c-0.87-1.348-1.922-2.936-2.998-4.477c-0.544-0.781-1.575-1.065-2.438-0.662c-0.37,0.172-0.736,0.348-1.104,0.525
		c-0.872,0.424-1.297,1.434-1.008,2.359c0.554,1.775,1.157,3.556,1.685,5.054c0.318,0.906-0.07,1.896-0.906,2.367
		c-2.287,1.29-4.504,2.69-6.647,4.19c-0.778,0.545-1.825,0.476-2.508-0.188c-1.165-1.134-2.563-2.468-3.978-3.749
		c-0.709-0.643-1.783-0.691-2.535-0.102c-0.314,0.246-0.627,0.494-0.938,0.744c-0.754,0.607-0.94,1.684-0.455,2.521
		c0.948,1.631,1.95,3.26,2.808,4.624c0.513,0.813,0.354,1.864-0.356,2.509c-1.94,1.762-3.793,3.616-5.556,5.557
		c-0.639,0.705-1.674,0.869-2.485,0.375c-1.399-0.855-3.082-1.856-4.763-2.799c-0.832-0.469-1.889-0.277-2.491,0.463
		c-0.248,0.306-0.494,0.612-0.737,0.922c-0.602,0.76-0.544,1.85,0.116,2.559c1.297,1.393,2.649,2.771,3.802,3.921
		c0.68,0.681,0.758,1.74,0.207,2.528c-1.5,2.143-2.896,4.361-4.188,6.65c-0.465,0.827-1.439,1.219-2.34,0.916
		c-1.566-0.525-3.441-1.132-5.297-1.68c-0.918-0.271-1.906,0.151-2.328,1.01c-0.17,0.351-0.34,0.701-0.508,1.055
		c-0.414,0.873-0.117,1.922,0.684,2.465c1.582,1.074,3.218,2.124,4.604,2.992c0.813,0.511,1.127,1.526,0.766,2.418
		c-0.979,2.416-1.846,4.894-2.592,7.421c-0.268,0.913-1.131,1.512-2.078,1.417c-1.639-0.163-3.594-0.336-5.521-0.457
		c-0.957-0.061-1.827,0.574-2.045,1.509c-0.088,0.381-0.175,0.763-0.257,1.146c-0.204,0.942,0.318,1.896,1.216,2.246
		c1.776,0.694,3.603,1.353,5.144,1.89c0.906,0.315,1.438,1.233,1.285,2.183c-0.412,2.564-0.703,5.169-0.867,7.809
		c-0.06,0.951-0.767,1.728-1.711,1.847c-1.621,0.204-2.496,0.467-4.388,0.774c-0.944,0.154-0.603,0.963-0.603,1.92
		c0,0.086,0,0.172,0,0.258c0,0.31-1.053,0.619-1.049,0.928C34.259,110.904,34.29,111.725,35.251,111.869z M133.74,42.465
		c15.979,2.719,30.045,11.021,40.129,22.838c-1.022,0.601-2.063,1.195-3.121,1.804c-2.366,1.366-4.771,2.62-7.198,3.765
		c-13.952,6.572-30.112-3.455-30.231-18.877c-0.002-0.244-0.002-0.488-0.002-0.732C133.313,48.281,133.47,45.359,133.74,42.465z
		 M122.108,79.333c15.668,0,28.37,12.703,28.37,28.371c0,15.667-12.702,28.371-28.37,28.371s-28.369-12.703-28.369-28.371
		S106.44,79.333,122.108,79.333z M110.052,42.542c0.271,2.879,0.244,5.789,0.244,8.748c0,0.096,0,0.19,0,0.287
		c0,15.569-16.279,25.579-30.256,18.717c-3.205-1.573-6.129-3.334-9.156-5.272C80.862,53.458,94.376,45.31,110.052,42.542z
		 M59.646,83.361c5.098,2.628,9.93,5.698,14.434,9.174c10.955,8.459,10.955,25.027,0,33.485c-4.504,3.478-9.336,6.547-14.434,9.174
		c-3.309-7.986-5.143-16.736-5.143-25.917S56.337,91.346,59.646,83.361z"/>
	<polygon fill="#020202" points="235.567,195.664 8.796,235.649 8.796,168.498 235.567,128.515 	"/>
	<path fill="#020202" d="M24.296,161.428v-52.716c0-53.498,43.969-97.022,97.535-97.022c53.498,0,97.465,43.524,97.465,97.022v18.49
		l7-1.295v-17.195c0-57.545-46.92-104.361-104.533-104.361c-57.547,0-104.467,46.816-104.467,104.361v54.012L24.296,161.428z"/>
	<line fill="none" x1="21.837" y1="202.612" x2="287.876" y2="155.703"/>
	
		<text transform="matrix(0.9878 -0.1558 0.1558 0.9878 35.333 196.8066)" fill="#FFFFFF" font-family="'Raleway'" font-size="23.9986">S</text>
	
		<text transform="matrix(0.9878 -0.1558 0.1558 0.9878 49.8408 194.5176)" fill="#FFFFFF" font-family="'Raleway'" font-size="23.9986">W</text>
	
		<text transform="matrix(0.9878 -0.1558 0.1558 0.9878 74.6509 190.6064)" fill="#FFFFFF" font-family="'Raleway'" font-size="23.9986">A</text>
	
		<text transform="matrix(0.9878 -0.1558 0.1558 0.9878 90.731 188.0713)" fill="#FFFFFF" font-family="'Raleway'" font-size="23.9986">M</text>
	
		<text transform="matrix(0.9783 -0.2073 0.2073 0.9783 112.0767 185.4453)" fill="#FFFFFF" font-family="'Raleway'" font-size="23.9989">P</text>
	
		<text transform="matrix(0.9744 -0.225 0.225 0.9744 123.1787 184.8135)" fill="#030303" font-family="'Raleway'" font-size="23.9986"> </text>
	
		<text transform="matrix(0.9878 -0.1558 0.1558 0.9878 132.3398 181.5078)" fill="#FFFFFF" font-family="'Raleway'" font-size="23.9986">R</text>
	
		<text transform="matrix(0.9878 -0.1558 0.1558 0.9878 147.9932 179.041)" fill="#FFFFFF" font-family="'Raleway'" font-size="23.9986">A</text>
	
		<text transform="matrix(0.9878 -0.1558 0.1558 0.9878 164.0801 176.5049)" fill="#FFFFFF" font-family="'Raleway'" font-size="23.9986">B</text>
	
		<text transform="matrix(0.9878 -0.1558 0.1558 0.9878 179.9131 174.0059)" fill="#FFFFFF" font-family="'Raleway'" font-size="23.9986">B</text>
	
		<text transform="matrix(0.9878 -0.1558 0.1558 0.9878 195.7686 171.5059)" fill="#FFFFFF" font-family="'Raleway'" font-size="23.9986">I</text>
	
		<text transform="matrix(0.9878 -0.1558 0.1558 0.9878 201.666 170.5742)" fill="#FFFFFF" font-family="'Raleway'" font-size="23.9986">T</text>
	<g>
		<path fill="#FFFFFF" d="M29.219,216.644c-0.8,0.146-1.591-0.017-2.267-0.33c-0.742-0.349-1.574-0.483-2.381-0.336l-0.021,0.004
			c-0.803,0.146-1.527,0.562-2.094,1.146c-0.523,0.537-1.207,0.975-2.01,1.119c-2.291,0.422-4.49-1.434-4.365-3.904
			c0.064-1.291,0.82-2.478,1.967-3.07c1.14-0.595,2.339-0.521,3.312-0.072c0.724,0.334,1.528,0.42,2.31,0.275l0.123-0.021
			c0.785-0.145,1.504-0.518,2.063-1.084c0.742-0.758,1.828-1.244,3.088-1.105c1.281,0.139,2.41,0.967,2.943,2.139
			C32.923,213.685,31.526,216.221,29.219,216.644z M21.62,214.281c-0.168-0.904-1.037-1.505-1.939-1.337
			c-0.904,0.168-1.505,1.037-1.337,1.938c0.166,0.904,1.034,1.504,1.938,1.341C21.187,216.056,21.786,215.187,21.62,214.281z
			 M30.12,212.715c-0.166-0.901-1.035-1.504-1.938-1.338c-0.904,0.166-1.505,1.037-1.337,1.94c0.167,0.904,1.034,1.502,1.938,1.336
			C29.688,214.49,30.288,213.621,30.12,212.715z"/>
	</g>
	<g>
		<path fill="#FFFFFF" d="M45.557,213.638c-0.799,0.146-1.59-0.015-2.269-0.328c-0.742-0.351-1.573-0.483-2.381-0.336l-0.019,0.004
			c-0.802,0.146-1.528,0.562-2.095,1.146c-0.522,0.537-1.207,0.974-2.01,1.119c-2.291,0.422-4.49-1.435-4.365-3.906
			c0.064-1.291,0.82-2.476,1.967-3.071c1.138-0.594,2.339-0.52,3.312-0.072c0.723,0.334,1.527,0.42,2.31,0.274l0.12-0.021
			c0.785-0.146,1.506-0.519,2.063-1.084c0.744-0.756,1.83-1.243,3.089-1.106c1.28,0.142,2.409,0.97,2.942,2.14
			C49.263,210.674,47.862,213.211,45.557,213.638z M37.956,211.272c-0.166-0.903-1.035-1.504-1.938-1.336
			c-0.906,0.168-1.504,1.037-1.338,1.938c0.168,0.903,1.034,1.504,1.939,1.338C37.522,213.045,38.122,212.178,37.956,211.272z
			 M46.458,209.708c-0.166-0.904-1.035-1.504-1.938-1.338c-0.905,0.166-1.504,1.035-1.338,1.939c0.168,0.904,1.036,1.504,1.94,1.338
			C46.024,211.479,46.624,210.612,46.458,209.708z"/>
	</g>
	<g>
		<path fill="#FFFFFF" d="M61.895,210.626c-0.799,0.148-1.59-0.012-2.269-0.328c-0.741-0.35-1.573-0.482-2.381-0.336l-0.021,0.004
			c-0.802,0.148-1.528,0.564-2.097,1.148c-0.521,0.537-1.205,0.971-2.006,1.119c-2.293,0.422-4.492-1.437-4.367-3.906
			c0.062-1.291,0.822-2.479,1.968-3.072c1.14-0.593,2.338-0.52,3.312-0.072c0.721,0.336,1.527,0.42,2.31,0.275l0.121-0.021
			c0.784-0.145,1.505-0.518,2.063-1.084c0.743-0.757,1.829-1.242,3.09-1.104c1.28,0.141,2.41,0.967,2.942,2.139
			C65.601,207.666,64.202,210.203,61.895,210.626z M54.292,208.267c-0.166-0.904-1.035-1.505-1.939-1.339
			c-0.904,0.164-1.502,1.035-1.336,1.939c0.168,0.903,1.035,1.502,1.939,1.336C53.86,210.039,54.46,209.168,54.292,208.267z
			 M62.792,206.7c-0.166-0.904-1.034-1.504-1.938-1.336c-0.905,0.166-1.502,1.035-1.336,1.938c0.167,0.904,1.034,1.506,1.938,1.34
			C62.362,208.474,62.96,207.604,62.792,206.7z"/>
	</g>
	<g>
		<path fill="#FFFFFF" d="M78.231,207.62c-0.797,0.146-1.588-0.014-2.266-0.33c-0.742-0.348-1.574-0.482-2.381-0.334l-0.021,0.002
			c-0.802,0.148-1.528,0.564-2.096,1.15c-0.521,0.537-1.203,0.971-2.007,1.117c-2.293,0.424-4.489-1.437-4.364-3.906
			c0.063-1.289,0.821-2.478,1.967-3.072c1.138-0.594,2.337-0.52,3.312-0.072c0.725,0.334,1.527,0.42,2.311,0.275l0.121-0.021
			c0.784-0.144,1.505-0.516,2.062-1.082c0.742-0.759,1.826-1.244,3.088-1.105c1.281,0.139,2.41,0.967,2.941,2.139
			C81.937,204.658,80.54,207.194,78.231,207.62z M70.628,205.256c-0.168-0.903-1.036-1.504-1.938-1.338
			c-0.903,0.168-1.504,1.035-1.336,1.94c0.167,0.904,1.036,1.502,1.938,1.336C70.198,207.031,70.796,206.162,70.628,205.256z
			 M79.132,203.69c-0.168-0.903-1.033-1.504-1.939-1.336c-0.904,0.168-1.502,1.037-1.336,1.938c0.168,0.903,1.035,1.504,1.939,1.338
			C78.702,205.463,79.298,204.596,79.132,203.69z"/>
	</g>
	<g>
		<path fill="#FFFFFF" d="M94.568,204.612c-0.797,0.145-1.588-0.014-2.266-0.33c-0.742-0.348-1.574-0.484-2.384-0.336l-0.021,0.004
			c-0.801,0.148-1.524,0.564-2.092,1.148c-0.522,0.535-1.207,0.971-2.009,1.117c-2.293,0.426-4.489-1.435-4.366-3.904
			c0.063-1.291,0.821-2.479,1.967-3.072c1.14-0.594,2.341-0.521,3.312-0.072c0.726,0.334,1.527,0.42,2.312,0.275l0.123-0.021
			c0.781-0.145,1.503-0.516,2.062-1.084c0.742-0.757,1.828-1.244,3.088-1.105c1.281,0.141,2.41,0.969,2.943,2.141
			C98.274,201.649,96.876,204.188,94.568,204.612z M86.968,202.249c-0.168-0.904-1.035-1.504-1.939-1.338s-1.504,1.035-1.336,1.941
			c0.166,0.902,1.035,1.502,1.939,1.336S87.134,203.153,86.968,202.249z M95.468,200.685c-0.166-0.903-1.035-1.504-1.939-1.336
			c-0.902,0.163-1.502,1.032-1.336,1.938c0.168,0.902,1.035,1.502,1.939,1.336C95.038,202.457,95.636,201.586,95.468,200.685z"/>
	</g>
	<g>
		<path fill="#FFFFFF" d="M110.907,201.603c-0.8,0.146-1.589-0.017-2.267-0.33c-0.744-0.349-1.574-0.483-2.383-0.336l-0.021,0.004
			c-0.802,0.146-1.525,0.562-2.095,1.146c-0.521,0.537-1.207,0.975-2.009,1.119c-2.291,0.422-4.489-1.436-4.366-3.904
			c0.063-1.29,0.821-2.478,1.967-3.07c1.14-0.594,2.341-0.521,3.312-0.072c0.725,0.332,1.529,0.42,2.312,0.275l0.121-0.021
			c0.782-0.145,1.503-0.516,2.062-1.084c0.742-0.757,1.828-1.244,3.088-1.105c1.279,0.141,2.408,0.967,2.943,2.137
			C114.612,198.644,113.212,201.181,110.907,201.603z M103.306,199.241c-0.168-0.904-1.035-1.504-1.939-1.336
			c-0.904,0.166-1.504,1.035-1.338,1.938c0.168,0.902,1.035,1.502,1.939,1.34C102.874,201.015,103.471,200.146,103.306,199.241z
			 M111.808,197.674c-0.168-0.901-1.037-1.504-1.939-1.338c-0.906,0.168-1.504,1.035-1.338,1.94
			c0.166,0.904,1.035,1.502,1.939,1.336C111.376,199.446,111.974,198.58,111.808,197.674z"/>
	</g>
	<g>
		<path fill="#FFFFFF" d="M127.244,198.594c-0.799,0.147-1.588-0.014-2.266-0.329c-0.742-0.349-1.576-0.481-2.382-0.334
			l-0.021,0.004c-0.803,0.146-1.526,0.562-2.096,1.146c-0.521,0.537-1.207,0.973-2.008,1.119c-2.293,0.422-4.492-1.435-4.367-3.906
			c0.063-1.291,0.821-2.476,1.968-3.069c1.139-0.596,2.338-0.521,3.312-0.074c0.723,0.336,1.528,0.422,2.312,0.276l0.12-0.022
			c0.785-0.145,1.506-0.517,2.062-1.082c0.744-0.76,1.828-1.243,3.088-1.106c1.281,0.142,2.41,0.97,2.943,2.142
			C130.951,195.631,129.55,198.17,127.244,198.594z M119.644,196.233c-0.168-0.904-1.035-1.504-1.939-1.338
			c-0.905,0.166-1.504,1.037-1.338,1.938c0.168,0.902,1.035,1.504,1.939,1.336C119.21,198.004,119.81,197.137,119.644,196.233z
			 M128.146,194.666c-0.166-0.904-1.037-1.504-1.938-1.338c-0.906,0.166-1.504,1.037-1.336,1.94
			c0.166,0.901,1.033,1.502,1.938,1.336C127.711,196.438,128.312,195.571,128.146,194.666z"/>
	</g>
	<g>
		<path fill="#FFFFFF" d="M143.582,195.585c-0.799,0.146-1.59-0.012-2.266-0.33c-0.744-0.346-1.576-0.48-2.383-0.334l-0.02,0.004
			c-0.805,0.148-1.53,0.564-2.098,1.146c-0.521,0.539-1.205,0.973-2.008,1.121c-2.291,0.422-4.49-1.437-4.365-3.906
			c0.062-1.291,0.821-2.479,1.969-3.074c1.137-0.591,2.338-0.518,3.312-0.07c0.722,0.334,1.524,0.42,2.31,0.275l0.121-0.021
			c0.782-0.144,1.504-0.518,2.062-1.082c0.742-0.758,1.826-1.246,3.089-1.105c1.28,0.141,2.409,0.967,2.94,2.141
			C147.287,192.623,145.888,195.164,143.582,195.585z M135.979,193.226c-0.166-0.904-1.032-1.505-1.938-1.336
			c-0.904,0.163-1.502,1.032-1.336,1.938c0.166,0.904,1.033,1.502,1.938,1.336C135.547,194.998,136.147,194.127,135.979,193.226z
			 M144.481,191.659c-0.166-0.904-1.034-1.504-1.938-1.338c-0.905,0.168-1.502,1.037-1.336,1.939
			c0.168,0.904,1.035,1.506,1.938,1.338C144.05,193.433,144.649,192.563,144.481,191.659z"/>
	</g>
	<g>
		<path fill="#FFFFFF" d="M159.918,192.579c-0.797,0.146-1.588-0.014-2.266-0.33c-0.742-0.348-1.574-0.482-2.384-0.334l-0.021,0.002
			c-0.803,0.148-1.527,0.564-2.094,1.148c-0.521,0.539-1.207,0.973-2.011,1.121c-2.293,0.422-4.492-1.438-4.367-3.908
			c0.064-1.291,0.822-2.478,1.968-3.072c1.14-0.594,2.34-0.52,3.312-0.072c0.727,0.334,1.529,0.42,2.312,0.275l0.121-0.021
			c0.783-0.144,1.502-0.516,2.062-1.082c0.743-0.759,1.827-1.246,3.09-1.105c1.278,0.139,2.408,0.967,2.94,2.139
			C163.625,189.617,162.227,192.153,159.918,192.579z M152.316,190.215c-0.167-0.903-1.033-1.504-1.939-1.338
			c-0.903,0.166-1.504,1.035-1.336,1.94c0.168,0.904,1.037,1.502,1.938,1.336C151.887,191.987,152.484,191.121,152.316,190.215z
			 M160.818,188.649c-0.166-0.903-1.033-1.504-1.938-1.336s-1.502,1.035-1.336,1.938c0.166,0.904,1.033,1.504,1.938,1.338
			C160.388,190.422,160.986,189.558,160.818,188.649z"/>
	</g>
	<g>
		<path fill="#FFFFFF" d="M176.255,189.569c-0.799,0.147-1.588-0.012-2.267-0.328c-0.742-0.348-1.572-0.484-2.382-0.336
			l-0.021,0.004c-0.803,0.148-1.527,0.564-2.096,1.148c-0.521,0.539-1.205,0.971-2.01,1.117c-2.291,0.424-4.488-1.435-4.365-3.904
			c0.063-1.291,0.822-2.479,1.969-3.074c1.138-0.592,2.338-0.521,3.312-0.07c0.725,0.334,1.525,0.42,2.312,0.275l0.119-0.021
			c0.783-0.145,1.504-0.516,2.062-1.084c0.744-0.757,1.828-1.244,3.092-1.105c1.277,0.141,2.406,0.969,2.941,2.141
			C179.962,186.608,178.562,189.147,176.255,189.569z M168.656,187.208c-0.168-0.904-1.035-1.504-1.939-1.338
			s-1.504,1.035-1.338,1.939c0.168,0.902,1.037,1.504,1.939,1.338C168.223,188.979,168.822,188.112,168.656,187.208z
			 M177.157,185.644c-0.166-0.903-1.035-1.504-1.938-1.338s-1.504,1.034-1.338,1.938c0.168,0.904,1.036,1.506,1.94,1.338
			C176.725,187.416,177.323,186.545,177.157,185.644z"/>
	</g>
	<g>
		<path fill="#FFFFFF" d="M192.592,186.56c-0.798,0.146-1.589-0.015-2.265-0.328c-0.744-0.349-1.574-0.483-2.383-0.336l-0.021,0.004
			c-0.802,0.146-1.524,0.562-2.095,1.146c-0.521,0.537-1.207,0.973-2.008,1.119c-2.291,0.422-4.49-1.434-4.367-3.903
			c0.063-1.29,0.821-2.479,1.967-3.073c1.142-0.592,2.341-0.521,3.312-0.07c0.723,0.332,1.526,0.42,2.311,0.275l0.121-0.023
			c0.783-0.145,1.504-0.514,2.062-1.082c0.742-0.76,1.827-1.244,3.091-1.107c1.277,0.143,2.406,0.969,2.94,2.143
			C196.3,183.603,194.9,186.14,192.592,186.56z M184.993,184.2c-0.166-0.904-1.035-1.504-1.938-1.336
			c-0.901,0.166-1.504,1.035-1.336,1.938c0.166,0.904,1.034,1.506,1.938,1.338C184.56,185.974,185.161,185.104,184.993,184.2z
			 M193.495,182.635c-0.166-0.905-1.035-1.506-1.938-1.338c-0.903,0.166-1.504,1.033-1.338,1.938
			c0.168,0.904,1.036,1.502,1.94,1.336C193.062,184.406,193.661,183.539,193.495,182.635z"/>
	</g>
	<g>
		<path fill="#FFFFFF" d="M208.931,183.553c-0.798,0.147-1.589-0.014-2.268-0.329c-0.742-0.349-1.573-0.481-2.381-0.334
			l-0.021,0.004c-0.802,0.145-1.526,0.562-2.095,1.146c-0.522,0.537-1.207,0.973-2.008,1.119c-2.293,0.422-4.49-1.435-4.367-3.906
			c0.064-1.291,0.82-2.476,1.967-3.071c1.142-0.594,2.34-0.521,3.312-0.072c0.723,0.334,1.524,0.422,2.309,0.276l0.123-0.022
			c0.783-0.146,1.504-0.517,2.062-1.081c0.742-0.761,1.826-1.244,3.091-1.107c1.277,0.142,2.408,0.97,2.939,2.14
			C212.637,180.592,211.239,183.129,208.931,183.553z M201.331,181.192c-0.166-0.904-1.035-1.504-1.938-1.338
			s-1.504,1.037-1.337,1.938c0.166,0.902,1.034,1.504,1.938,1.336C200.897,182.963,201.497,182.096,201.331,181.192z
			 M209.833,179.624c-0.166-0.902-1.035-1.502-1.94-1.336c-0.901,0.166-1.503,1.035-1.337,1.939
			c0.167,0.904,1.035,1.504,1.941,1.336C209.4,181.399,209.999,180.531,209.833,179.624z"/>
	</g>
	<g>
		<path fill="#FFFFFF" d="M225.269,180.544c-0.8,0.146-1.588-0.012-2.268-0.33c-0.741-0.346-1.573-0.48-2.381-0.334l-0.021,0.006
			c-0.804,0.146-1.526,0.562-2.095,1.146c-0.521,0.537-1.206,0.971-2.01,1.119c-2.291,0.422-4.49-1.437-4.367-3.906
			c0.065-1.293,0.822-2.479,1.97-3.074c1.14-0.591,2.34-0.52,3.312-0.07c0.724,0.334,1.526,0.42,2.31,0.275l0.123-0.021
			c0.782-0.145,1.501-0.518,2.062-1.082c0.742-0.758,1.828-1.246,3.088-1.105c1.281,0.143,2.409,0.967,2.94,2.141
			C228.975,177.582,227.577,180.121,225.269,180.544z M217.667,178.185c-0.168-0.906-1.035-1.504-1.938-1.339
			c-0.903,0.166-1.504,1.033-1.337,1.938c0.166,0.904,1.033,1.504,1.939,1.338C217.237,179.957,217.835,179.086,217.667,178.185z
			 M226.167,176.618c-0.166-0.904-1.033-1.502-1.938-1.338c-0.901,0.168-1.502,1.037-1.336,1.939s1.035,1.506,1.94,1.338
			C225.737,178.392,226.335,177.522,226.167,176.618z"/>
	</g>
</g>
</svg>
