<?xml version="1.0" encoding="utf-8"?>
<!-- Generator: Adobe Illustrator 16.0.4, SVG Export Plug-In . SVG Version: 6.00 Build 0)  -->
<!DOCTYPE svg PUBLIC "-//W3C//DTD SVG 1.1//EN" "http://www.w3.org/Graphics/SVG/1.1/DTD/svg11.dtd">
<svg version="1.1" id="Layer_1" xmlns="http://www.w3.org/2000/svg" xmlns:xlink="http://www.w3.org/1999/xlink" x="0px" y="0px"
	 width="237px" height="240px" viewBox="0 0 237 240" enable-background="new 0 0 237 240" xml:space="preserve">
<g>
	<path fill="#020202" d="M206.893,109.935c0.004-0.309-1.049-0.618-1.049-0.928c0-0.086,0-0.172,0-0.258
		c0-0.957,0.342-1.766-0.603-1.92c-1.892-0.307-2.767-0.57-4.388-0.774c-0.944-0.119-1.651-0.896-1.711-1.847
		c-0.164-2.64-0.455-5.245-0.866-7.809c-0.153-0.95,0.379-1.868,1.284-2.183c1.541-0.537,3.367-1.196,5.144-1.89
		c0.897-0.35,1.42-1.304,1.216-2.246c-0.082-0.383-0.169-0.765-0.257-1.146c-0.217-0.935-1.088-1.57-2.045-1.509
		c-1.926,0.121-3.881,0.294-5.521,0.457c-0.946,0.095-1.81-0.504-2.078-1.417c-0.746-2.527-1.613-5.005-2.592-7.421
		c-0.36-0.892-0.047-1.907,0.767-2.418c1.385-0.868,3.021-1.918,4.603-2.992c0.801-0.543,1.098-1.592,0.684-2.465
		c-0.168-0.354-0.338-0.704-0.508-1.055c-0.422-0.859-1.41-1.281-2.328-1.01c-1.856,0.548-3.731,1.155-5.297,1.68
		c-0.901,0.303-1.875-0.089-2.34-0.916c-1.291-2.289-2.687-4.507-4.187-6.65c-0.552-0.788-0.474-1.847,0.207-2.528
		c1.151-1.15,2.504-2.528,3.801-3.921c0.66-0.709,0.718-1.799,0.117-2.559c-0.244-0.31-0.49-0.616-0.738-0.922
		c-0.603-0.74-1.659-0.932-2.491-0.463c-1.681,0.943-3.363,1.944-4.763,2.799c-0.812,0.494-1.847,0.33-2.485-0.375
		c-1.763-1.941-3.615-3.795-5.556-5.557c-0.711-0.645-0.869-1.696-0.356-2.509c0.857-1.364,1.859-2.993,2.807-4.624
		c0.486-0.837,0.299-1.914-0.455-2.521c-0.312-0.25-0.624-0.498-0.938-0.744c-0.752-0.589-1.826-0.541-2.535,0.102
		c-1.414,1.281-2.813,2.615-3.978,3.749c-0.682,0.664-1.729,0.733-2.508,0.188c-2.144-1.5-4.36-2.9-6.647-4.19
		c-0.836-0.471-1.225-1.461-0.906-2.367c0.527-1.498,1.131-3.279,1.684-5.054c0.289-0.925-0.135-1.935-1.008-2.359
		c-0.368-0.177-0.734-0.353-1.104-0.525c-0.863-0.403-1.895-0.119-2.439,0.662c-1.076,1.541-2.127,3.129-2.998,4.477
		c-0.516,0.798-1.52,1.097-2.4,0.74c-2.416-0.984-4.893-1.85-7.418-2.598c-0.922-0.273-1.523-1.149-1.414-2.103
		c0.176-1.546,0.363-3.373,0.508-5.188c0.078-0.967-0.564-1.853-1.51-2.07c-0.41-0.096-0.82-0.182-1.23-0.27
		c-0.93-0.199-1.873,0.319-2.229,1.2c-0.691,1.71-1.346,3.466-1.883,4.942c-0.324,0.893-1.236,1.443-2.174,1.291
		c-2.564-0.413-5.17-0.635-7.809-0.801c-0.959-0.061-1.744-0.642-1.849-1.597c-0.168-1.51-0.385-3.007-0.641-4.771
		c-0.14-0.957-0.957-1.125-1.925-1.125c-0.031,0-0.062,0-0.094,0c-0.402,0-0.805-0.553-1.203-0.547
		c-0.959,0.017-1.773,0.154-1.925,1.101c-0.282,1.776-0.528,3.567-0.718,5.088c-0.118,0.942-0.896,1.649-1.846,1.708
		c-2.639,0.164-5.245,0.454-7.809,0.866c-0.949,0.152-1.867-0.377-2.183-1.283c-0.486-1.396-1.072-3.025-1.694-4.64
		c-0.349-0.907-1.316-1.432-2.265-1.217c-0.437,0.101-0.873,0.204-1.31,0.309c-0.926,0.225-1.551,1.094-1.487,2.044
		c0.116,1.744,0.274,3.486,0.422,4.967c0.095,0.946-0.506,1.807-1.418,2.076c-2.526,0.745-5.004,1.611-7.423,2.592
		c-0.889,0.361-1.901,0.049-2.414-0.764c-0.76-1.214-1.658-2.618-2.594-4.011c-0.541-0.809-1.601-1.106-2.479-0.683
		c-0.418,0.202-0.834,0.407-1.248,0.615c-0.852,0.427-1.266,1.414-0.992,2.325c0.493,1.623,1.012,3.231,1.473,4.601
		c0.303,0.9-0.09,1.872-0.918,2.338c-2.289,1.291-4.504,2.689-6.648,4.188c-0.787,0.551-1.846,0.474-2.525-0.206
		c-0.98-0.982-2.127-2.11-3.307-3.225c-0.708-0.67-1.809-0.724-2.57-0.117c-0.375,0.299-0.748,0.599-1.119,0.904
		c-0.736,0.606-0.922,1.663-0.449,2.491c0.816,1.429,1.65,2.827,2.379,4.021c0.494,0.81,0.328,1.845-0.375,2.483
		c-1.942,1.761-3.797,3.615-5.557,5.554c-0.646,0.711-1.697,0.871-2.509,0.359c-1.136-0.717-2.464-1.535-3.819-2.337
		c-0.838-0.495-1.922-0.306-2.531,0.453c-0.309,0.385-0.613,0.772-0.918,1.162c-0.586,0.755-0.531,1.831,0.115,2.534
		c1.08,1.174,2.168,2.311,3.117,3.285c0.664,0.681,0.731,1.728,0.186,2.506c-1.5,2.142-2.898,4.36-4.188,6.648
		c-0.47,0.835-1.459,1.224-2.363,0.907c-1.238-0.435-2.67-0.924-4.133-1.394c-0.938-0.301-1.947,0.145-2.377,1.032
		c-0.213,0.438-0.42,0.877-0.625,1.319c-0.408,0.876-0.136,1.921,0.661,2.467c1.278,0.877,2.556,1.719,3.669,2.438
		c0.797,0.515,1.094,1.521,0.739,2.401c-0.985,2.417-1.853,4.892-2.601,7.419c-0.272,0.922-1.149,1.521-2.103,1.414
		c-1.276-0.144-2.737-0.298-4.228-0.428c-0.982-0.086-1.868,0.575-2.09,1.535c-0.112,0.482-0.219,0.969-0.323,1.455
		c-0.201,0.946,0.297,1.905,1.194,2.259c1.412,0.557,2.807,1.08,4.025,1.522c0.893,0.326,1.405,1.236,1.256,2.174
		c-0.414,2.564-0.705,5.169-0.871,7.809c-0.06,0.959-0.781,1.743-1.736,1.848c-1.248,0.14-2.678,0.312-4.133,0.512
		c-0.965,0.132-1.697,0.951-1.703,1.924c0,0.191-0.002,0.381-0.002,0.572c0,0.33,0.002,0.66,0.008,0.988
		c0.015,0.965,0.718,1.784,1.672,1.93c1.475,0.222,2.924,0.418,4.186,0.576c0.941,0.119,1.647,0.897,1.709,1.846
		c0.163,2.64,0.452,5.244,0.864,7.808c0.153,0.951-0.376,1.869-1.28,2.183c-1.179,0.41-2.522,0.892-3.882,1.405
		c-0.918,0.346-1.433,1.316-1.224,2.275c0.082,0.379,0.169,0.756,0.257,1.131l22.062,3.892c-2.771-7.394-4.293-15.399-4.293-23.762
		c0-9.251,1.859-18.066,5.213-26.099c5.195,2.65,10.117,5.761,14.699,9.293c11.031,8.501,11.031,25.109,0,33.609
		c-3.671,2.832-7.57,5.388-11.646,7.657l83.293,14.688c5.541-2.899,12.414-3.328,18.857-0.164c3.08,1.513,5.945,3.199,8.852,5.052
		l14.24,2.512c0.061-0.152,0.129-0.301,0.229-0.441c1.5-2.14,2.898-4.359,4.189-6.646c0.472-0.836,1.459-1.224,2.363-0.907
		c1.478,0.519,3.231,1.112,4.981,1.661c0.916,0.285,1.914-0.129,2.344-0.987c0.187-0.371,0.369-0.744,0.55-1.119
		c0.418-0.864,0.137-1.912-0.652-2.463c-1.523-1.06-3.088-2.097-4.418-2.955c-0.797-0.515-1.096-1.521-0.738-2.399
		c0.982-2.418,1.85-4.894,2.598-7.42c0.273-0.922,1.15-1.521,2.105-1.414c1.584,0.182,3.463,0.375,5.322,0.52
		c0.961,0.074,1.843-0.552,2.069-1.488c0.093-0.395,0.183-0.787,0.271-1.182c0.214-0.938-0.303-1.893-1.194-2.252
		c-1.754-0.71-3.56-1.387-5.075-1.939c-0.891-0.324-1.432-1.236-1.281-2.174c0.414-2.564,0.658-5.169,0.824-7.809
		c0.061-0.959,0.691-1.742,1.646-1.848c1.605-0.178,3.326-0.412,5.199-0.69C206.852,111.724,206.883,110.903,206.893,109.935z
		 M107.825,51.262c0,0.244,0,0.488-0.002,0.732c-0.119,15.422-16.279,25.449-30.231,18.877c-2.428-1.145-4.832-2.399-7.199-3.765
		c-1.057-0.609-2.098-1.203-3.121-1.804c10.084-11.817,24.15-20.119,40.129-22.838C107.672,45.358,107.828,48.28,107.825,51.262z
		 M147.402,107.703c0,15.668-12.701,28.371-28.369,28.371s-28.37-12.704-28.37-28.371c0-15.668,12.702-28.371,28.37-28.371
		S147.402,92.035,147.402,107.703z M170.258,65.021c-3.027,1.938-5.951,3.699-9.156,5.272c-13.977,6.862-30.256-3.148-30.256-18.717
		c0-0.097,0-0.191,0-0.287c0-2.959-0.027-5.869,0.244-8.748C146.766,45.309,160.279,53.457,170.258,65.021z M186.639,109.276
		c0,9.181-1.834,17.931-5.143,25.917c-5.098-2.627-9.93-5.696-14.434-9.174c-10.955-8.458-10.955-25.026,0-33.485
		c4.504-3.476,9.336-6.546,14.434-9.174C184.805,91.345,186.639,100.095,186.639,109.276z"/>
	<polygon fill="#020202" points="5.574,128.513 232.346,168.497 232.346,235.649 5.574,195.663 	"/>
	<path fill="#020202" d="M223.846,162.722v-54.011c0-57.545-46.92-104.361-104.467-104.361
		c-57.613,0-104.533,46.816-104.533,104.361v17.195l7,1.295v-18.49c0-53.498,43.967-97.022,97.465-97.022
		c53.566,0,97.535,43.524,97.535,97.022v52.716L223.846,162.722z"/>
	<line fill="none" x1="-46.734" y1="155.702" x2="219.305" y2="202.612"/>
	<text transform="matrix(0.9799 0.1992 -0.1992 0.9799 27.8701 163.4756)" fill="#FFFFFF" font-family="'Raleway'" font-size="24">S</text>
	<text transform="matrix(0.9799 0.1992 -0.1992 0.9799 42.2637 166.4004)" fill="#FFFFFF" font-family="'Raleway'" font-size="24">W</text>
	<text transform="matrix(0.9799 0.1992 -0.1992 0.9799 66.876 171.4053)" fill="#FFFFFF" font-family="'Raleway'" font-size="24">A</text>
	<text transform="matrix(0.9799 0.1992 -0.1992 0.9799 82.8281 174.6484)" fill="#FFFFFF" font-family="'Raleway'" font-size="24">M</text>
	<text transform="matrix(0.989 0.1476 -0.1476 0.989 103.7456 179.6475)" fill="#FFFFFF" font-family="'Raleway'" font-size="24">P</text>
	<text transform="matrix(-0.9743 -0.225 -0.225 0.9743 117.9648 184.8125)" fill="#030303" font-family="'Raleway'" font-size="24"> </text>
	<text transform="matrix(0.9799 0.1992 -0.1992 0.9799 124.1074 183.0391)" fill="#FFFFFF" font-family="'Raleway'" font-size="24">R</text>
	<text transform="matrix(0.9799 0.1992 -0.1992 0.9799 139.6357 186.1982)" fill="#FFFFFF" font-family="'Raleway'" font-size="24">A</text>
	<text transform="matrix(0.9799 0.1992 -0.1992 0.9799 155.5957 189.4434)" fill="#FFFFFF" font-family="'Raleway'" font-size="24">B</text>
	<text transform="matrix(0.9799 0.1992 -0.1992 0.9799 171.3027 192.6357)" fill="#FFFFFF" font-family="'Raleway'" font-size="24">B</text>
	<text transform="matrix(0.9799 0.1992 -0.1992 0.9799 187.0332 195.833)" fill="#FFFFFF" font-family="'Raleway'" font-size="24">I</text>
	<text transform="matrix(0.9799 0.1992 -0.1992 0.9799 192.8838 197.0215)" fill="#FFFFFF" font-family="'Raleway'" font-size="24">T</text>
	<g>
		<path fill="#FFFFFF" d="M209.255,211.403c0.533-1.172,1.662-2,2.943-2.139c1.26-0.139,2.346,0.348,3.088,1.105
			c0.56,0.566,1.278,0.939,2.063,1.084l0.123,0.021c0.782,0.145,1.586,0.059,2.31-0.275c0.973-0.449,2.172-0.522,3.312,0.072
			c1.146,0.593,1.902,1.78,1.967,3.071c0.125,2.47-2.074,4.326-4.365,3.904c-0.803-0.144-1.487-0.582-2.01-1.119
			c-0.567-0.584-1.291-1-2.094-1.146l-0.021-0.004c-0.808-0.148-1.64-0.013-2.382,0.336c-0.676,0.313-1.467,0.475-2.266,0.33
			C209.615,216.22,208.219,213.683,209.255,211.403z M220.859,216.222c0.904,0.164,1.773-0.436,1.939-1.34
			c0.168-0.902-0.433-1.771-1.337-1.938c-0.903-0.168-1.772,0.432-1.94,1.336C219.355,215.185,219.955,216.054,220.859,216.222z
			 M212.357,214.653c0.904,0.166,1.772-0.432,1.939-1.336c0.168-0.904-0.433-1.775-1.337-1.941
			c-0.903-0.166-1.772,0.436-1.938,1.338C210.854,213.62,211.453,214.489,212.357,214.653z"/>
	</g>
	<g>
		<path fill="#FFFFFF" d="M192.919,208.394c0.533-1.17,1.662-1.998,2.943-2.139c1.258-0.137,2.344,0.35,3.088,1.107
			c0.558,0.565,1.278,0.938,2.063,1.084l0.121,0.02c0.782,0.146,1.586,0.059,2.31-0.275c0.973-0.447,2.174-0.521,3.312,0.072
			c1.146,0.596,1.902,1.781,1.967,3.072c0.125,2.471-2.074,4.328-4.365,3.906c-0.803-0.146-1.488-0.582-2.01-1.119
			c-0.567-0.584-1.293-1-2.095-1.146l-0.019-0.004c-0.807-0.147-1.639-0.014-2.381,0.336c-0.678,0.314-1.469,0.475-2.268,0.328
			C193.279,213.21,191.879,210.673,192.919,208.394z M204.521,213.212c0.906,0.166,1.772-0.434,1.94-1.338
			c0.166-0.902-0.432-1.771-1.338-1.938c-0.903-0.168-1.771,0.432-1.938,1.336C203.02,212.177,203.619,213.044,204.521,213.212z
			 M196.02,211.646c0.904,0.166,1.772-0.433,1.94-1.338c0.166-0.904-0.432-1.773-1.338-1.939c-0.903-0.166-1.772,0.434-1.938,1.338
			C194.518,210.612,195.117,211.479,196.02,211.646z"/>
	</g>
	<g>
		<path fill="#FFFFFF" d="M176.581,205.387c0.533-1.172,1.662-1.999,2.942-2.139c1.261-0.138,2.347,0.347,3.091,1.104
			c0.558,0.566,1.278,0.939,2.063,1.084l0.121,0.021c0.782,0.145,1.588,0.061,2.309-0.275c0.974-0.447,2.173-0.521,3.312,0.072
			c1.146,0.594,1.905,1.781,1.968,3.072c0.125,2.47-2.074,4.328-4.367,3.906c-0.801-0.148-1.485-0.582-2.006-1.119
			c-0.569-0.584-1.295-1-2.097-1.148l-0.021-0.004c-0.807-0.146-1.639-0.014-2.381,0.336c-0.678,0.316-1.469,0.477-2.268,0.328
			C176.939,210.202,175.541,207.665,176.581,205.387z M188.186,210.202c0.904,0.166,1.771-0.432,1.939-1.336
			c0.166-0.904-0.432-1.775-1.336-1.939c-0.904-0.166-1.773,0.434-1.939,1.338C186.682,209.167,187.281,210.038,188.186,210.202z
			 M179.686,208.64c0.904,0.166,1.771-0.435,1.938-1.339c0.166-0.903-0.43-1.772-1.336-1.938c-0.904-0.168-1.773,0.432-1.939,1.336
			C178.182,207.604,178.779,208.472,179.686,208.64z"/>
	</g>
	<g>
		<path fill="#FFFFFF" d="M160.242,202.379c0.531-1.172,1.66-2,2.941-2.139c1.262-0.138,2.346,0.347,3.088,1.106
			c0.558,0.566,1.279,0.938,2.063,1.082l0.121,0.021c0.784,0.145,1.586,0.059,2.31-0.275c0.975-0.447,2.174-0.521,3.312,0.072
			c1.146,0.595,1.904,1.783,1.967,3.072c0.125,2.47-2.072,4.33-4.365,3.906c-0.803-0.146-1.485-0.58-2.006-1.117
			c-0.568-0.586-1.294-1.002-2.096-1.15l-0.02-0.002c-0.807-0.148-1.639-0.014-2.381,0.334c-0.678,0.316-1.469,0.477-2.266,0.33
			C160.602,207.194,159.205,204.657,160.242,202.379z M171.85,207.194c0.902,0.166,1.771-0.432,1.938-1.336
			c0.168-0.906-0.432-1.773-1.336-1.941c-0.902-0.166-1.771,0.434-1.939,1.338C170.346,206.161,170.943,207.03,171.85,207.194z
			 M163.346,205.63c0.904,0.166,1.771-0.434,1.939-1.338c0.166-0.902-0.432-1.771-1.336-1.938c-0.906-0.168-1.771,0.432-1.939,1.336
			C161.844,204.595,162.439,205.462,163.346,205.63z"/>
	</g>
	<g>
		<path fill="#FFFFFF" d="M143.905,199.371c0.532-1.172,1.661-2,2.942-2.14c1.26-0.139,2.347,0.348,3.088,1.105
			c0.559,0.568,1.281,0.939,2.062,1.084l0.123,0.021c0.784,0.145,1.586,0.059,2.311-0.275c0.972-0.448,2.172-0.521,3.312,0.072
			c1.146,0.593,1.903,1.781,1.967,3.072c0.123,2.47-2.073,4.33-4.366,3.905c-0.802-0.146-1.486-0.582-2.009-1.118
			c-0.567-0.584-1.291-1-2.092-1.148l-0.021-0.004c-0.809-0.148-1.641-0.012-2.383,0.336c-0.678,0.316-1.469,0.475-2.266,0.33
			C144.266,204.187,142.867,201.649,143.905,199.371z M155.51,204.187c0.904,0.166,1.773-0.433,1.939-1.336
			c0.168-0.906-0.432-1.775-1.336-1.941s-1.771,0.434-1.939,1.338C154.008,203.153,154.605,204.021,155.51,204.187z M147.01,202.621
			c0.904,0.166,1.771-0.433,1.939-1.336c0.166-0.905-0.434-1.774-1.336-1.938c-0.904-0.168-1.773,0.433-1.939,1.336
			C145.506,201.585,146.104,202.456,147.01,202.621z"/>
	</g>
	<g>
		<path fill="#FFFFFF" d="M127.569,196.36c0.534-1.17,1.663-1.997,2.942-2.137c1.26-0.139,2.346,0.348,3.088,1.105
			c0.56,0.568,1.281,0.939,2.063,1.084l0.121,0.021c0.784,0.145,1.588,0.057,2.312-0.275c0.971-0.449,2.172-0.521,3.312,0.072
			c1.146,0.593,1.903,1.781,1.967,3.071c0.123,2.468-2.075,4.326-4.366,3.904c-0.802-0.144-1.488-0.582-2.009-1.119
			c-0.569-0.584-1.293-1-2.094-1.146l-0.021-0.004c-0.809-0.148-1.639-0.013-2.383,0.336c-0.678,0.313-1.467,0.475-2.266,0.33
			C127.93,201.179,126.529,198.642,127.569,196.36z M139.174,201.181c0.904,0.163,1.771-0.437,1.939-1.339
			c0.166-0.903-0.434-1.772-1.338-1.938c-0.904-0.168-1.771,0.432-1.939,1.336C137.671,200.144,138.268,201.013,139.174,201.181z
			 M130.672,199.612c0.904,0.166,1.773-0.432,1.939-1.336c0.166-0.906-0.432-1.773-1.338-1.941
			c-0.902-0.166-1.771,0.436-1.939,1.338C129.168,198.579,129.766,199.446,130.672,199.612z"/>
	</g>
	<g>
		<path fill="#FFFFFF" d="M111.232,193.356c0.533-1.172,1.662-2,2.943-2.142c1.26-0.137,2.344,0.347,3.088,1.107
			c0.557,0.565,1.277,0.937,2.062,1.081l0.121,0.023c0.783,0.146,1.588,0.059,2.311-0.277c0.973-0.446,2.172-0.521,3.312,0.074
			c1.146,0.594,1.903,1.779,1.967,3.07c0.125,2.471-2.074,4.328-4.367,3.906c-0.801-0.146-1.487-0.582-2.008-1.119
			c-0.569-0.584-1.293-1-2.095-1.146l-0.021-0.004c-0.806-0.147-1.64-0.014-2.382,0.334c-0.678,0.316-1.467,0.477-2.266,0.33
			C111.592,198.169,110.191,195.63,111.232,193.356z M122.836,198.168c0.904,0.168,1.771-0.433,1.939-1.336
			c0.166-0.901-0.432-1.771-1.338-1.938c-0.904-0.166-1.771,0.434-1.939,1.338C121.332,197.136,121.932,198.003,122.836,198.168z
			 M114.332,196.604c0.906,0.166,1.773-0.435,1.939-1.336c0.168-0.904-0.43-1.775-1.336-1.941c-0.902-0.166-1.773,0.434-1.939,1.338
			C112.83,195.571,113.43,196.438,114.332,196.604z"/>
	</g>
	<g>
		<path fill="#FFFFFF" d="M94.896,190.347c0.531-1.173,1.66-2,2.94-2.14c1.263-0.14,2.347,0.347,3.089,1.106
			c0.559,0.564,1.28,0.938,2.063,1.082l0.121,0.021c0.784,0.145,1.588,0.059,2.309-0.275c0.974-0.447,2.175-0.521,3.312,0.07
			c1.147,0.596,1.906,1.783,1.968,3.074c0.125,2.47-2.074,4.328-4.365,3.906c-0.803-0.148-1.487-0.582-2.008-1.121
			c-0.567-0.582-1.293-0.998-2.097-1.146l-0.02-0.004c-0.807-0.146-1.639-0.012-2.383,0.334c-0.676,0.318-1.467,0.477-2.266,0.33
			C95.254,195.163,93.854,192.622,94.896,190.347z M106.498,195.162c0.906,0.166,1.773-0.431,1.939-1.336s-0.432-1.774-1.336-1.938
			c-0.906-0.168-1.773,0.432-1.939,1.336C104.994,194.126,105.594,194.997,106.498,195.162z M97.996,193.597
			c0.904,0.168,1.771-0.433,1.939-1.337c0.166-0.903-0.431-1.772-1.336-1.94c-0.904-0.166-1.773,0.434-1.939,1.338
			C96.492,192.563,97.092,193.431,97.996,193.597z"/>
	</g>
	<g>
		<path fill="#FFFFFF" d="M78.559,187.338c0.533-1.172,1.662-2,2.941-2.139c1.262-0.14,2.346,0.347,3.09,1.106
			c0.559,0.566,1.278,0.938,2.062,1.082l0.121,0.021c0.783,0.145,1.586,0.059,2.312-0.275c0.972-0.447,2.173-0.521,3.312,0.072
			c1.146,0.595,1.904,1.781,1.968,3.072c0.125,2.47-2.074,4.33-4.367,3.908c-0.803-0.148-1.489-0.582-2.01-1.121
			c-0.567-0.584-1.292-1-2.095-1.148l-0.02-0.002c-0.809-0.148-1.641-0.014-2.384,0.334c-0.677,0.316-1.468,0.477-2.265,0.33
			C78.915,192.153,77.516,189.616,78.559,187.338z M90.162,192.153c0.902,0.166,1.771-0.432,1.938-1.336
			c0.168-0.906-0.432-1.775-1.336-1.941c-0.906-0.166-1.772,0.434-1.939,1.338C88.657,191.12,89.255,191.987,90.162,192.153z
			 M81.659,190.589c0.905,0.166,1.772-0.434,1.938-1.338s-0.432-1.771-1.336-1.938c-0.904-0.168-1.772,0.432-1.938,1.336
			C80.155,189.556,80.754,190.421,81.659,190.589z"/>
	</g>
	<g>
		<path fill="#FFFFFF" d="M62.219,184.33c0.535-1.172,1.664-2,2.941-2.14c1.264-0.139,2.348,0.348,3.092,1.105
			c0.557,0.568,1.278,0.939,2.062,1.084l0.119,0.021c0.787,0.145,1.588,0.059,2.312-0.275c0.974-0.45,2.175-0.521,3.312,0.07
			c1.147,0.595,1.906,1.783,1.969,3.074c0.123,2.47-2.074,4.328-4.365,3.905c-0.805-0.147-1.488-0.579-2.009-1.118
			c-0.569-0.584-1.294-1-2.097-1.148l-0.02-0.004c-0.809-0.148-1.639-0.012-2.382,0.336c-0.679,0.316-1.468,0.476-2.267,0.328
			C62.579,189.146,61.18,186.608,62.219,184.33z M73.823,189.146c0.903,0.166,1.772-0.435,1.94-1.338
			c0.166-0.904-0.434-1.773-1.338-1.939s-1.772,0.434-1.939,1.338C72.319,188.112,72.919,188.979,73.823,189.146z M65.321,187.58
			c0.903,0.168,1.772-0.433,1.94-1.338c0.166-0.903-0.435-1.771-1.338-1.938c-0.904-0.166-1.772,0.435-1.938,1.338
			C63.818,186.544,64.417,187.415,65.321,187.58z"/>
	</g>
	<g>
		<path fill="#FFFFFF" d="M45.883,181.322c0.534-1.173,1.663-2,2.94-2.142c1.264-0.137,2.349,0.348,3.091,1.107
			c0.559,0.568,1.279,0.938,2.062,1.082l0.121,0.023c0.785,0.145,1.588,0.057,2.311-0.275c0.972-0.45,2.171-0.521,3.312,0.07
			c1.146,0.595,1.904,1.783,1.967,3.074c0.123,2.469-2.075,4.325-4.367,3.903c-0.801-0.146-1.486-0.582-2.008-1.119
			c-0.57-0.584-1.293-1-2.094-1.146l-0.021-0.004c-0.809-0.148-1.639-0.013-2.383,0.336c-0.676,0.313-1.467,0.474-2.264,0.328
			C46.241,186.138,44.842,183.601,45.883,181.322z M57.485,186.138c0.903,0.168,1.772-0.433,1.938-1.337
			c0.168-0.903-0.434-1.772-1.336-1.938c-0.904-0.168-1.773,0.432-1.939,1.336C55.98,185.103,56.582,185.972,57.485,186.138z
			 M48.982,184.571c0.904,0.166,1.773-0.432,1.941-1.336c0.166-0.906-0.434-1.773-1.338-1.939c-0.904-0.168-1.773,0.432-1.939,1.338
			C47.48,183.538,48.08,184.405,48.982,184.571z"/>
	</g>
	<g>
		<path fill="#FFFFFF" d="M29.547,178.313c0.531-1.17,1.662-1.998,2.94-2.14c1.264-0.137,2.348,0.347,3.09,1.107
			c0.558,0.565,1.278,0.936,2.062,1.081l0.123,0.023c0.784,0.146,1.586,0.057,2.309-0.277c0.972-0.448,2.17-0.521,3.312,0.072
			c1.146,0.596,1.902,1.781,1.967,3.072c0.123,2.471-2.074,4.328-4.367,3.906c-0.801-0.146-1.486-0.582-2.008-1.119
			c-0.569-0.584-1.293-1.001-2.095-1.146l-0.021-0.004c-0.807-0.147-1.639-0.014-2.381,0.334c-0.678,0.316-1.469,0.477-2.267,0.33
			C29.903,183.128,28.505,180.591,29.547,178.313z M41.148,183.127c0.904,0.168,1.772-0.433,1.938-1.336
			c0.167-0.901-0.433-1.771-1.337-1.938c-0.904-0.166-1.773,0.434-1.939,1.338S40.244,182.962,41.148,183.127z M32.645,181.562
			c0.906,0.168,1.774-0.431,1.941-1.336c0.166-0.904-0.435-1.773-1.337-1.939c-0.905-0.166-1.774,0.434-1.94,1.336
			C31.143,180.53,31.741,181.399,32.645,181.562z"/>
	</g>
	<g>
		<path fill="#FFFFFF" d="M13.21,175.306c0.531-1.173,1.659-1.998,2.94-2.14c1.26-0.14,2.346,0.347,3.088,1.106
			c0.561,0.564,1.279,0.937,2.062,1.082l0.123,0.021c0.783,0.145,1.586,0.059,2.309-0.275c0.972-0.449,2.172-0.521,3.312,0.07
			c1.147,0.596,1.904,1.781,1.969,3.074c0.123,2.47-2.076,4.328-4.367,3.906c-0.803-0.148-1.488-0.582-2.01-1.119
			c-0.567-0.585-1.291-1.001-2.094-1.146l-0.021-0.006c-0.807-0.146-1.639-0.012-2.381,0.334c-0.679,0.318-1.467,0.477-2.267,0.33
			C13.564,180.12,12.167,177.581,13.21,175.306z M24.811,180.121c0.906,0.166,1.773-0.433,1.939-1.338
			c0.167-0.905-0.434-1.772-1.337-1.938s-1.771,0.432-1.938,1.338C23.307,179.085,23.905,179.956,24.811,180.121z M16.309,178.556
			c0.905,0.168,1.774-0.435,1.94-1.337c0.166-0.903-0.435-1.772-1.336-1.94c-0.905-0.164-1.772,0.434-1.938,1.338
			C14.807,177.522,15.404,178.39,16.309,178.556z"/>
	</g>
</g>
</svg>
