<?xml version="1.0" encoding="utf-8"?>
<!-- Generator: Adobe Illustrator 16.0.4, SVG Export Plug-In . SVG Version: 6.00 Build 0)  -->
<!DOCTYPE svg PUBLIC "-//W3C//DTD SVG 1.1//EN" "http://www.w3.org/Graphics/SVG/1.1/DTD/svg11.dtd">
<svg version="1.1" id="Layer_1" xmlns="http://www.w3.org/2000/svg" xmlns:xlink="http://www.w3.org/1999/xlink" x="0px" y="0px"
	 width="298.962px" height="195.575px" viewBox="0 0 298.962 195.575" enable-background="new 0 0 298.962 195.575"
	 xml:space="preserve">
<path fill="#FFFFFF" d="M282.306,126.96l16.406-29.386h-24.432V76.386h-38.42h-11.417v0.003h-74.961H74.522v-0.003h-11.42H24.683
	v21.188H0.255l16.406,29.386L0,156.804v0.009h49.365v-21.187h13.737v35.619h0.066l-0.066,0.23l86.38,24.1l86.379-24.1l-0.062-0.23
	h0.062v-35.619h13.738v21.187h49.363v-0.009L282.306,126.96z M224.447,162.828l-74.961,20.887l-74.961-20.887v-27.202h74.961h74.961
	V162.828z"/>
<g>
	<g>
		<path fill="#FFFFFF" d="M130.979,18.661c0.742,0.686,1.479,1.379,2.225,2.058c0.913,0.828,1.854,1.599,2.886,2.213
			c2.167,1.289,4.345,1.336,6.53,0.077c0.348-0.203,0.688-0.259,1.07-0.224c2.21,0.194,4.24,1.006,6.114,2.389
			c1.202,0.884,2.476,1.586,3.883,1.891c0.308,0.065,0.312,0.054,0.36-0.26c2.891,3.348,6.357,5.162,10.473,5.19
			c1.057,0.006,2.113,0.134,3.166-0.102c0.492-0.11,0.922-0.333,1.131-0.925c0.115-0.13,0.172-0.289,0.158-0.479
			c-0.051-0.387-0.18-0.738-0.334-1.076c-0.594-0.911-1.338-1.49-2.342-1.515c-0.402,0-0.806,0-1.205,0
			c-0.209-0.007-0.418,0.018-0.627,0.012c-0.177-0.042-0.343-0.037-0.511,0.034c-0.272,0.073-0.514-0.092-0.76-0.18
			c-0.26-0.065-0.438-0.326-0.698-0.399c-0.744,0.09-1.413-0.207-2.072-0.55c-0.334-0.17-0.405-0.536-0.495-0.889
			c-0.036-0.089-0.09-0.151-0.167-0.186c-0.369,0.095-0.639-0.044-0.792-0.458c0.004,0.005,0.005-0.046,0.009-0.042
			c0.005,0.003,0.037-0.029,0.039-0.029c0.076-0.039,0.165-0.06,0.21-0.15c0.47-0.703,0.952-1.392,1.293-2.197
			c0.106-0.257,0.222-0.266,0.438-0.162c2.688,1.322,5.071,0.798,7.139-1.625c0.078-0.089,0.168-0.175,0.264-0.231
			c1.695-0.967,2.281-3.122,1.375-5.088c-0.123-0.269-0.229-0.536-0.295-0.837c-0.877-4.132-4.633-6.402-8.043-4.837
			c-0.453,0.208-0.629,0.095-0.878-0.333C159.331,7.7,158,5.774,156.467,4.043c-2.093-2.357-4.621-3.567-7.458-3.995
			c-0.614-0.093-1.222-0.056-1.818,0.156c-0.646,0.229-1.135,0.661-1.268,1.486c-0.124,0.78,0.232,1.331,0.692,1.813
			c0.476,0.498,1.064,0.781,1.599,1.168c0.084,0.088,0.155,0.191,0.254,0.253c0.09,0.023,0.174,0.021,0.259,0
			c0.943-0.069,1.882-0.032,2.801,0.241c0.219,0.062,0.44-0.002,0.65,0.1c0.317,0.108,0.66,0.112,0.956,0.314
			c0.132,0.025,0.253,0.079,0.37,0.146c0.178,0.032,0.325,0.142,0.478,0.236c0.229,0.077,0.43,0.224,0.643,0.341
			c0.057,0.028,0.11,0.062,0.167,0.094c0,0-0.025-0.017-0.029-0.017c-0.049-0.027-0.095-0.054-0.142-0.08
			c-0.235-0.152-0.481-0.264-0.718-0.399c-0.178-0.118-0.382-0.154-0.558-0.267c-0.127-0.025-0.254-0.065-0.366-0.141
			c-0.236-0.145-0.508-0.12-0.759-0.212c-0.074-0.037-0.152-0.06-0.234-0.063c-0.193-0.001-0.389,0.014-0.562-0.111
			c-0.058-0.015-0.113-0.023-0.176-0.032c-0.244-0.054-0.491-0.089-0.737-0.114c-0.998-0.121-1.983-0.062-2.969,0.142
			c-0.489,0.177-1.01,0.257-1.477,0.531c-0.663,0.384-1.187,0.916-1.181,1.865c0.005,0.911,0.542,1.372,1.164,1.734
			c0.162,0.097,0.331,0.185,0.494,0.274c0.192,0.446,0.556,0.402,0.9,0.472c2.106,0.424,4.231,0.704,6.345,1.051
			c1.301,0.211,2.469,0.921,3.651,1.553c0.315,0.17,0.525,0.429,0.394,0.88c-0.117,0.42-0.354,0.646-0.753,0.604
			c-0.984-0.103-1.865-0.553-2.708-1.117c-0.774-0.517-1.521-1.083-2.297-1.594c-1.19-0.787-2.479-1.049-3.804-1.21
			c-0.233-0.031-0.453-0.1-0.681-0.16c-0.519-0.132-1.013,0.029-1.504,0.217c-1.101,0.174-2.204,0.339-3.334,0.797
			c0.071-0.781,0.15-1.492,0.047-2.201c-0.171-1.21-0.454-2.304-1.696-2.571c-0.346-0.075-0.335-0.542-0.195-0.808
			c0.308-0.596-0.023-0.513-0.313-0.463c-0.663,0.114-1.156,0.523-1.502,1.342c-0.177-0.757,0.163-1.248,0.29-1.793
			c-1.132,0.045-2.211,1.309-2.417,2.812c-0.03,0.194-0.024,0.394-0.051,0.583c-0.027,0.171,0.083,0.44-0.172,0.471
			c-0.204,0.025-0.339-0.151-0.416-0.362c-0.037-0.1-0.034-0.217-0.065-0.316c-0.067-0.199,0.133-0.566-0.168-0.587
			c-0.225-0.017-0.244,0.348-0.311,0.556c-0.671,2.016-0.779,3.982,0.406,5.823c0.342,0.527,0.735,0.981,1.238,1.29
			c0.232,0.142,0.56,0.2,0.306,0.671c-0.053,0.103,0.125,0.078,0.208,0.078c0.106-0.037,0.17-0.02,0.121,0.136
			c-0.593,0.33-1.157,0.747-1.853,0.688c-0.241,0.069-0.478,0.082-0.713-0.001l0.008-0.006c-0.189-0.257-0.476-0.236-0.717-0.334
			c-0.397-0.044-0.758-0.251-1.132-0.381c-0.27-0.046-0.529-0.158-0.786-0.259c-0.105-0.018-0.208-0.021-0.311-0.036
			c-0.362-0.086-0.722-0.184-1.072-0.332c-0.039-0.035-0.083-0.064-0.124-0.095c-0.848-0.393-1.701-0.777-2.547-1.177
			c-0.252-0.121-0.416-0.16-0.581,0.191c-1.518,3.257-3.047,6.505-4.593,9.746c-0.223,0.47-0.079,0.633,0.268,0.81
			c1.088,0.552,1.938,0.1,2.691-0.825c0.31-0.124,0.554-0.367,0.809-0.596c0.271-0.678,0.598-1.326,0.825-2.033
			c0.038-0.24,0.007-0.494,0.108-0.725c0.037-0.175,0.096-0.344,0.1-0.532c0.051-0.168-0.056-0.402,0.147-0.512
			c0.112-0.082,0.183-0.207,0.26-0.328c0.039-0.043,0.069-0.092,0.1-0.144c0.086-0.191,0.215-0.348,0.303-0.537
			c0.035-0.09,0.067-0.178,0.078-0.271c0.028-0.401,0.172-0.406,0.435-0.215C130.176,18.058,130.482,18.538,130.979,18.661z"/>
		<path fill="#FFFFFF" d="M159.803,25.977c-0.012,0.969,0.014,0.896,0.792,1.235c0.36,0.157,0.807,0.139,1.103,0.638
			c0.229,0.388,0.475-0.149,0.707-0.286c0.242,0.193,0.521,0.265,0.792,0.373c0.256,0.153,0.543,0.14,0.816,0.205
			c0.106,0.026,0.219,0.019,0.326,0.01c0.239-0.046,0.452-0.215,0.709-0.188c0.104,0,0.215,0.002,0.319-0.011
			c0.32-0.078,0.642-0.082,0.959-0.005c0.867,0.21,1.693,0.51,2.205,1.463c0.158,0.252,0.281,0.525,0.312,0.845
			c0.145,0.204,0.004,0.525,0.207,0.704l-0.017-0.01c0.406,0.144,0.816,0.115,1.229,0.018c0.035-0.014,0.063-0.037,0.104-0.046
			c1.308-0.428,1.568-1.509,0.617-2.675c-0.896-1.095-2.053-1.428-3.268-1.135c-0.953,0.232-1.793,0.01-2.636-0.418
			c-1.245-0.635-2.34-1.579-3.453-2.473c-0.23-0.186-0.466-0.356-0.684-0.557c-0.238-0.215-0.368-0.146-0.522,0.139
			c-0.275,0.511-0.553,1.027-0.958,1.42c-0.128,0.18-0.101,0.339,0.041,0.483C159.606,25.801,159.835,25.701,159.803,25.977z"/>
		<path fill="#FFFFFF" d="M128.723,18.676c-0.001,0.03-0.001,0.06-0.003,0.092c-0.014,0.156,0.008,0.344-0.208,0.31
			c-0.16-0.084-0.35-0.328-0.483-0.105c-0.204,0.333,0.211,0.484,0.25,0.768c0.158,0.196-0.032,0.347-0.049,0.522
			c-0.051,0.243-0.136,0.467-0.289,0.648c-0.154,0.698-0.474,1.299-0.777,1.912c-0.023,0.343-0.518,0.485-0.292,0.937
			c1.032,0.219,1.808-0.284,2.401-1.222c0.71-1.12,1.235-2.354,1.557-3.703c-0.288-0.624-0.85-0.865-1.304-1.253
			c-0.218-0.186-0.344,0.132-0.467,0.315c0,0.078,0.003,0.155,0.007,0.231C128.929,18.291,128.869,18.519,128.723,18.676z"/>
		<path fill="#FFFFFF" d="M136.07,16.076c0.069-0.007,0.137-0.012,0.204-0.019c0.18-0.135,0.403,0.036,0.577-0.122
			c0.185-0.099,0.432-0.159,0.421-0.447c-0.011-0.307-0.287-0.219-0.442-0.268c-1.847-0.594-3.585-1.538-5.362-2.348
			c-0.171-0.077-0.386-0.339-0.545-0.065c-0.218,0.369-0.456,0.754-0.502,1.216c-0.013,0.147,0.184,0.188,0.299,0.25
			c0.298,0.168,0.596,0.327,0.895,0.491c0.137,0.356,0.49,0.327,0.705,0.541c0.121,0.057,0.257,0.043,0.378,0.101
			c0.107,0.01,0.195,0.078,0.29,0.126c0.251,0.094,0.517,0.142,0.759,0.275c0.397,0.191,0.833,0.21,1.233,0.373
			c0.12,0.025,0.24,0.021,0.361,0.014C135.579,16.087,135.836,16.196,136.07,16.076z"/>
		<path fill="#1D1D1B" d="M166.706,15.226c-0.039-0.733-0.522-1.333-1.039-1.283c-0.438,0.042-0.758,0.569-0.719,1.203
			c0.043,0.725,0.541,1.345,1.037,1.291C166.426,16.388,166.735,15.861,166.706,15.226z"/>
		<path fill="#1D1D1B" d="M169.788,17.467c0.019-0.52-0.396-0.598-0.731-0.659c-0.381,0.048-0.779,0.113-0.771,0.646"/>
	</g>
	<g>
		<g>
			<g>
				<g>
					<g>
						<path fill="#FFFFFF" d="M195.987,58.597c-0.084-4.496-1.965-8.711-5.303-11.862c-3.328-3.148-7.73-4.882-12.396-4.882l0,0
							c-0.106,0-0.217,0.001-0.321,0.003c-9.765,0.169-17.563,7.952-17.388,17.353c0.082,4.501,1.964,8.713,5.3,11.866
							c3.327,3.145,7.731,4.88,12.396,4.88c0.107,0,0.217,0,0.322-0.005c4.729-0.081,9.141-1.93,12.426-5.207
							C194.309,67.468,196.073,63.153,195.987,58.597z M179.561,74.001c-0.008,0-0.014,0.002-0.021,0.002
							c-0.057,0-0.112-0.024-0.157-0.062c-0.052-0.044-0.076-0.104-0.078-0.168l-0.103-13.251c0-0.075,0.037-0.146,0.104-0.188
							c0.059-0.043,0.139-0.055,0.213-0.034l13.186,4.027c0.064,0.018,0.113,0.064,0.146,0.121c0.024,0.058,0.031,0.125,0.006,0.186
							c-0.754,1.777-1.852,3.388-3.252,4.787C186.938,72.081,183.374,73.706,179.561,74.001z M166.961,48.387
							c0.271-0.271,0.557-0.538,0.848-0.786c0.051-0.042,0.117-0.064,0.184-0.057c0.07,0.006,0.131,0.039,0.17,0.094l7.84,10.239
							c0.046,0.057,0.062,0.134,0.035,0.205c-0.021,0.071-0.08,0.125-0.149,0.149l-12.668,4.058
							c-0.028,0.01-0.052,0.012-0.079,0.012c-0.038,0-0.078-0.009-0.116-0.029c-0.06-0.034-0.102-0.089-0.111-0.155
							c-0.219-0.96-0.334-1.95-0.353-2.94C162.479,55.129,164.043,51.302,166.961,48.387L166.961,48.387z M163.745,64.515
							c0.029-0.058,0.08-0.104,0.146-0.124l12.715-4.073c0.076-0.024,0.154-0.011,0.217,0.034c0.062,0.041,0.104,0.11,0.104,0.184
							l0.098,13.213c0,0.066-0.029,0.129-0.078,0.172c-0.045,0.04-0.104,0.061-0.164,0.061c-0.006,0-0.016,0-0.021,0
							c-3.607-0.334-6.892-1.809-9.492-4.265c-1.525-1.443-2.713-3.133-3.521-5.016C163.717,64.641,163.717,64.577,163.745,64.515z
							 M178.036,56.665C178.034,56.665,178.034,56.665,178.036,56.665c-0.076,0-0.147-0.038-0.188-0.096l-7.854-10.248
							c-0.039-0.049-0.053-0.117-0.039-0.183c0.015-0.062,0.054-0.119,0.109-0.153c2.373-1.407,5.119-2.177,7.939-2.223
							c0.098-0.002,0.192-0.004,0.286-0.004l0,0c2.701,0,5.363,0.669,7.697,1.936c0.062,0.032,0.104,0.087,0.119,0.152
							c0.014,0.061,0,0.128-0.041,0.183l-7.834,10.539C178.184,56.628,178.112,56.665,178.036,56.665z M193.674,62.05
							c-0.019,0.063-0.058,0.119-0.113,0.152c-0.037,0.019-0.078,0.032-0.119,0.032c-0.027,0-0.047-0.006-0.074-0.013l-13.16-4.018
							c-0.067-0.023-0.129-0.077-0.149-0.15c-0.025-0.07-0.021-0.147,0.031-0.205l7.862-10.58c0.039-0.05,0.104-0.086,0.166-0.094
							c0.066-0.008,0.137,0.011,0.187,0.05c0.35,0.28,0.688,0.571,1,0.87c2.963,2.799,4.635,6.543,4.707,10.538
							C194.03,59.783,193.92,60.933,193.674,62.05z"/>
						<path fill="none" d="M178.29,42.087L178.29,42.087L178.29,42.087z"/>
					</g>
				</g>
				<path fill="#FFFFFF" d="M178.29,42.062L178.29,42.062c4.605,0,8.955,1.71,12.244,4.82c3.293,3.114,5.152,7.279,5.234,11.721
					c0.086,4.499-1.656,8.762-4.9,11.998c-3.246,3.239-7.604,5.065-12.272,5.145c-0.107,0.002-0.215,0.002-0.322,0.002
					c-4.605,0-8.953-1.712-12.244-4.822c-3.293-3.115-5.155-7.274-5.235-11.721c-0.085-4.497,1.656-8.76,4.903-12
					c3.244-3.235,7.604-5.065,12.275-5.145C178.075,42.062,178.184,42.062,178.29,42.062 M178.29,40.858
					c-0.112,0-0.229,0-0.344,0.002c-10.348,0.181-18.586,8.402-18.404,18.367c0.186,9.856,8.537,17.722,18.732,17.722
					c0.113,0,0.229,0,0.344-0.002c10.351-0.18,18.588-8.4,18.402-18.366C196.836,48.726,188.483,40.858,178.29,40.858L178.29,40.858
					z"/>
			</g>
			<g>
				<g>
					<g>
						<path fill="#FFFFFF" d="M134.274,70.718c3.237-3.247,4.99-7.511,4.939-12.01c-0.057-4.491-1.904-8.712-5.21-11.88l0,0
							c-0.077-0.075-0.154-0.146-0.232-0.219c-7.041-6.514-18.273-6.297-25.038,0.485c-3.235,3.245-4.991,7.507-4.935,12.009
							c0.055,4.494,1.904,8.71,5.209,11.88c0.076,0.071,0.152,0.146,0.23,0.217c3.413,3.153,7.897,4.843,12.622,4.753
							C126.589,75.861,130.998,74.003,134.274,70.718z M111.351,70.473c-0.005-0.005-0.01-0.012-0.016-0.012
							c-0.041-0.041-0.067-0.095-0.069-0.156c-0.003-0.064,0.021-0.128,0.069-0.172l9.641-9.457
							c0.053-0.051,0.129-0.078,0.207-0.067c0.077,0.011,0.141,0.057,0.178,0.125l6.393,11.805c0.034,0.057,0.038,0.125,0.016,0.187
							c-0.024,0.059-0.073,0.11-0.133,0.133c-1.837,0.75-3.794,1.147-5.813,1.186C117.988,74.122,114.269,72.853,111.351,70.473z
							 M121.189,43.763c0.393-0.009,0.787,0,1.177,0.017c0.069,0.004,0.131,0.038,0.174,0.085c0.041,0.049,0.062,0.115,0.051,0.181
							l-1.947,12.583c-0.011,0.071-0.058,0.135-0.126,0.17c-0.067,0.036-0.151,0.038-0.218,0.002l-11.951-5.73
							c-0.025-0.013-0.042-0.029-0.062-0.045c-0.028-0.027-0.05-0.062-0.06-0.101c-0.021-0.065-0.01-0.132,0.03-0.188
							c0.551-0.826,1.194-1.608,1.906-2.325C113.073,45.497,116.988,43.844,121.189,43.763L121.189,43.763z M107.094,53.005
							c0.062-0.023,0.132-0.018,0.189,0.011l12,5.753c0.069,0.033,0.117,0.097,0.129,0.167c0.013,0.073-0.012,0.149-0.064,0.201
							l-9.614,9.429c-0.046,0.044-0.113,0.071-0.183,0.068c-0.059-0.002-0.116-0.026-0.159-0.068
							c-0.005-0.005-0.01-0.011-0.018-0.017c-2.314-2.686-3.556-5.959-3.6-9.472c-0.022-2.059,0.371-4.061,1.181-5.947
							C106.98,53.077,107.031,53.029,107.094,53.005z M122.975,57.15C122.973,57.15,122.973,57.15,122.975,57.15
							c-0.056-0.052-0.083-0.126-0.071-0.199l1.948-12.596c0.011-0.062,0.047-0.119,0.105-0.156c0.056-0.037,0.123-0.05,0.188-0.035
							c2.716,0.62,5.226,1.938,7.259,3.815c0.069,0.064,0.138,0.13,0.204,0.195h0.003c1.914,1.835,3.309,4.119,4.036,6.601
							c0.018,0.064,0.009,0.13-0.03,0.186c-0.037,0.055-0.096,0.092-0.163,0.105L123.18,57.21
							C123.106,57.226,123.027,57.201,122.975,57.15z M130.112,71.593c-0.057,0.036-0.127,0.044-0.194,0.028
							c-0.039-0.011-0.078-0.031-0.108-0.06c-0.019-0.015-0.033-0.035-0.042-0.056l-6.382-11.787
							c-0.038-0.066-0.038-0.144-0.002-0.21c0.036-0.065,0.099-0.111,0.175-0.125l13.326-2.152c0.064-0.013,0.132,0.003,0.184,0.044
							c0.053,0.037,0.087,0.098,0.094,0.162c0.042,0.435,0.067,0.871,0.073,1.295c0.049,3.995-1.51,7.784-4.384,10.67
							C132.023,70.228,131.101,70.964,130.112,71.593z"/>
						<path fill="none" d="M133.834,46.989L133.834,46.989L133.834,46.989z"/>
					</g>
				</g>
				<path fill="#FFFFFF" d="M121.508,42.062L121.508,42.062c4.539,0,8.84,1.665,12.117,4.696c3.368,3.116,5.276,7.312,5.37,11.809
					c0.092,4.498-1.638,8.764-4.874,12.008c-3.331,3.338-7.811,5.173-12.617,5.173c-4.542,0-8.842-1.665-12.116-4.695
					c-6.958-6.436-7.179-17.12-0.497-23.817C112.221,43.899,116.7,42.062,121.508,42.062 M121.508,40.858
					c-4.921,0-9.837,1.858-13.517,5.544c-7.17,7.19-6.932,18.613,0.531,25.517c3.636,3.363,8.313,5.033,12.982,5.033
					c4.921,0,9.838-1.857,13.516-5.546c7.17-7.187,6.931-18.611-0.534-25.515C130.855,42.529,126.179,40.858,121.508,40.858
					L121.508,40.858z"/>
			</g>
			<path fill="#FFFFFF" d="M178.383,57.486l-7.035-14.676c-0.396-0.833-0.523-2.323-0.566-3.214l0.107-0.191l-1.123-4.646
				c0,0-0.025,0.001-0.07,0.006v-0.158l0.146-0.007c0.135-0.01,0.239-0.124,0.229-0.257l-0.035-0.518
				c-0.01-0.13-0.127-0.234-0.266-0.226l-0.082,0.005l-0.004-0.786c2.012-0.595,4.248-1.464,4.488-2.437c0-0.002,0-0.002,0-0.004
				c0.131-0.175,0.211-0.39,0.211-0.626c0-0.596-0.509-1.079-1.123-1.079c-0.619,0-1.119,0.479-1.125,1.072l-6.367,1.862
				c-0.133,0.037-0.209,0.172-0.172,0.299l0.479,1.577c0.037,0.127,0.181,0.2,0.312,0.165c0,0,0.312-0.062,0.809-0.175l0.002,0.287
				l-0.039,0.004c-0.137,0.007-0.244,0.12-0.231,0.254l0.032,0.52c0.013,0.126,0.113,0.221,0.244,0.223v0.141
				c-7.375,0.396-28.186,1.512-29.005,1.544c-0.997,0.037-1.956,0.842-1.956,0.842l-18.008,23.789l28.576,2.724l19.738-21.729
				c0.848-0.928,1.53-1.352,2.157-1.555c0.136,0.261,0.261,0.532,0.273,0.656c0.043,0.28,0.496,0.88,0.119,1.042
				c-0.371,0.159-0.248,0.681-0.162,1.201l7.906,14.834c-0.107,0.199-0.17,0.426-0.17,0.667c0,0.793,0.672,1.441,1.5,1.441
				c0.819,0,1.491-0.646,1.491-1.441C179.665,58.188,179.108,57.588,178.383,57.486z M155.77,46.676l-9.171,12.378l-22.502-0.501
				c0,0,12.146-14.396,13.268-15.718c1.125-1.321,2.996-1.321,3.87-1.142c0,0,13.601,2.583,13.477,2.524
				C156.146,44.574,156.393,45.896,155.77,46.676z"/>
			<path fill="#FFFFFF" d="M157.412,63.253l-0.118-0.406c-0.038-0.126-0.177-0.2-0.308-0.165l-1.591,0.429l-4.758-0.608
				c-0.003-0.359-0.048-0.723-0.139-1.082c-0.312-1.272-1.116-2.353-2.263-3.048c-0.821-0.497-1.764-0.759-2.728-0.759
				c-0.312,0-0.628,0.028-0.938,0.083l-0.004-0.001l-0.158,0.033c-0.029,0.007-0.061,0.014-0.091,0.019
				c-1.333,0.305-2.465,1.092-3.187,2.219c-0.721,1.127-0.943,2.453-0.629,3.734c0.314,1.273,1.118,2.354,2.265,3.049
				c0.821,0.497,1.764,0.759,2.727,0.759l0,0c0.369,0,0.738-0.037,1.103-0.113l0.09-0.017c1.336-0.308,2.469-1.092,3.188-2.221
				c0.229-0.357,0.406-0.735,0.534-1.127l1.255,0.093l-0.079,0.02c-0.132,0.036-0.21,0.169-0.173,0.297l0.117,0.405
				c0.037,0.128,0.177,0.201,0.309,0.167l5.4-1.46C157.369,63.514,157.449,63.381,157.412,63.253z M147.563,59.598
				c0.777,0.503,1.325,1.26,1.541,2.143c0.032,0.125,0.056,0.254,0.073,0.382l-2.637-0.237L147.563,59.598z M144.648,59.095
				c0.022-0.008,0.042-0.013,0.063-0.015l0.004-0.002c0.472-0.099,0.967-0.11,1.439-0.027l-1.008,2.256l-1.882-1.591
				C143.671,59.423,144.142,59.209,144.648,59.095z M141.898,63.385c-0.216-0.879-0.085-1.783,0.372-2.562l1.875,1.585l-2.171,1.241
				C141.947,63.562,141.921,63.471,141.898,63.385z M145.487,66.129c-0.687,0-1.364-0.188-1.957-0.549
				c-0.305-0.184-0.574-0.406-0.81-0.662l2.198-1.256l0.577,2.467C145.495,66.129,145.491,66.129,145.487,66.129z M148.651,64.432
				c-0.399,0.628-0.984,1.112-1.668,1.398l-0.487-2.088l2.429,0.181C148.847,64.1,148.76,64.271,148.651,64.432z"/>
			<path fill="#FFFFFF" d="M142.128,24.148c-0.169-0.183-0.834-1.143-1.747-1.143l-10.378-0.02c-0.812,0-0.666,0.621-0.293,0.861
				c0.375,0.24,2.6,1.803,4.036,1.803c0.115,0,0.245-0.009,0.383-0.019l2.623,9.891h-0.925v1.08h1.212l0.335,1.264l1.814-0.443
				l-0.218-0.82h0.266v-1.08h-0.554l-2.708-10.221c1.053-0.253,2.042-0.562,2.329-0.652c0.5-0.163,2.183-0.202,3.162-0.021
				C142.44,24.805,142.293,24.328,142.128,24.148z"/>
			<path fill="#575756" d="M161.927,37.816c-0.056-0.1-0.168-0.159-0.285-0.153l-21.713,0.96c-0.158,0.009-0.286,0.124-0.297,0.276
				c-0.012,0.153,0.097,0.288,0.251,0.32l18.466,3.604c0.02,0.005,0.041,0.005,0.063,0.005c0.102,0,0.196-0.047,0.257-0.128
				l3.242-4.566C161.981,38.04,161.986,37.918,161.927,37.816z"/>
		</g>
		<g>
			<path fill="#1D1D1B" d="M145.491,67.608c-0.658,0-1.825-0.317-1.876-0.333l-22.252-6.756l0.003-0.012
				c-0.638-0.252-1.063-0.849-1.063-1.514c0-0.907,0.765-1.643,1.704-1.643l23.639,0.136v0.002c2.823,0.082,5.098,2.325,5.098,5.057
				C150.745,65.337,148.387,67.608,145.491,67.608z M121.615,60.367l22.07,6.7c0.007,0.004,1.181,0.323,1.809,0.323
				c2.772,0,5.029-2.174,5.029-4.843c0-2.657-2.245-4.832-5.005-4.843h-0.129v-0.003l-23.377-0.133c-0.816,0-1.48,0.641-1.48,1.429
				c0,0.603,0.4,1.143,0.998,1.341l0.088,0.03l0,0h-0.003V60.367L121.615,60.367z"/>
		</g>
	</g>
</g>
<g>
	<g>
		<path fill="#FFFFFF" d="M103.832,150.769c-1.433,0-2.552-0.395-3.358-1.185c-0.806-0.79-1.208-1.909-1.208-3.357
			c0-1.487,0.372-2.644,1.117-3.456c0.745-0.812,1.775-1.222,3.091-1.222c1.257,0,2.235,0.359,2.936,1.076
			c0.7,0.716,1.051,1.704,1.051,2.967v1.177h-5.735c0.026,0.689,0.23,1.229,0.612,1.615c0.382,0.388,0.917,0.582,1.607,0.582
			c0.536,0,1.042-0.055,1.519-0.167c0.478-0.111,0.977-0.289,1.495-0.532v1.877c-0.423,0.216-0.877,0.371-1.359,0.478
			C105.115,150.718,104.526,150.769,103.832,150.769z M103.489,143.274c-0.515,0-0.917,0.16-1.209,0.485
			c-0.292,0.326-0.458,0.791-0.501,1.394h3.405c-0.012-0.603-0.167-1.063-0.47-1.394
			C104.413,143.438,104.003,143.274,103.489,143.274z"/>
		<path fill="#FFFFFF" d="M115.635,147.969c0,0.912-0.317,1.606-0.949,2.086c-0.634,0.479-1.582,0.716-2.845,0.716
			c-0.647,0-1.198-0.044-1.654-0.132c-0.456-0.087-0.883-0.216-1.28-0.386v-2.005c0.449,0.213,0.958,0.39,1.522,0.535
			c0.564,0.144,1.062,0.215,1.492,0.215c0.881,0,1.321-0.256,1.321-0.764c0-0.191-0.059-0.351-0.175-0.47
			c-0.117-0.12-0.318-0.255-0.604-0.401c-0.286-0.152-0.668-0.328-1.146-0.529c-0.685-0.288-1.187-0.551-1.507-0.795
			c-0.321-0.243-0.555-0.523-0.701-0.839c-0.146-0.316-0.218-0.703-0.218-1.165c0-0.792,0.306-1.401,0.919-1.834
			c0.612-0.436,1.48-0.65,2.604-0.65c1.072,0,2.114,0.233,3.127,0.7l-0.731,1.75c-0.446-0.19-0.863-0.348-1.25-0.47
			c-0.388-0.123-0.783-0.188-1.186-0.188c-0.716,0-1.074,0.194-1.074,0.583c0,0.218,0.115,0.405,0.346,0.565
			c0.23,0.156,0.737,0.395,1.516,0.707c0.696,0.277,1.203,0.544,1.528,0.788c0.324,0.241,0.562,0.521,0.716,0.844
			C115.559,147.149,115.635,147.528,115.635,147.969z"/>
		<path fill="#FFFFFF" d="M121.277,148.836c0.423,0,0.933-0.093,1.528-0.279v1.811c-0.605,0.27-1.348,0.401-2.229,0.401
			c-0.97,0-1.677-0.24-2.12-0.731c-0.442-0.491-0.663-1.229-0.663-2.208v-4.286h-1.162v-1.026l1.336-0.812l0.699-1.879h1.553v1.894
			h2.489v1.821h-2.489v4.286c0,0.346,0.096,0.6,0.29,0.764C120.702,148.754,120.958,148.836,121.277,148.836z"/>
		<path fill="#FFFFFF" d="M124.259,149.472c0-0.441,0.121-0.782,0.357-1.011c0.239-0.228,0.587-0.34,1.043-0.34
			c0.439,0,0.78,0.117,1.021,0.35c0.241,0.231,0.362,0.568,0.362,1.003c0,0.419-0.123,0.75-0.366,0.991
			c-0.244,0.241-0.583,0.362-1.018,0.362c-0.446,0-0.79-0.12-1.035-0.355C124.382,150.234,124.259,149.901,124.259,149.472z"/>
	</g>
	<rect x="99.546" y="155.998" fill="#FFFFFF" width="27.664" height="2.938"/>
</g>
<g>
	<rect x="168.29" y="141.446" fill="#FFFFFF" width="28.522" height="3.139"/>
	<text transform="matrix(0.9649 0 0 1 163.772 156.5059)" fill="#FFFFFF" font-family="'Raleway-Bold'" font-size="16.2775">1999</text>
</g>
<text transform="matrix(1 0 0 1 106.1143 125.3271)" fill="#1D1D1B" font-family="'Raleway-Bold'" font-size="21">CYCLING</text>
<text transform="matrix(0.9241 0 0 1 30.9971 105.4072)" fill="#1D1D1B" font-family="'Raleway-Bold'" font-size="33.6938">SWAMP RABBIT</text>
</svg>
